Recursive-Mono Casual Black Italic.ufo
<glyph name="exclam" format="2">
  <advance width="600.0"/>
  <unicode hex="0021"/>
  <outline>
    <contour>
      <point x="401.66666666666663" y="310.6666666666667" type="line"/>
      <point x="423.6666666666667" y="380.0"/>
      <point x="458.00000000000006" y="468.3333333333333"/>
      <point x="482.3333333333333" y="553.6666666666666" type="curve"/>
      <point x="489.99999999999994" y="579.3333333333334" type="line" smooth="yes"/>
      <point x="514.3333333333331" y="660.6666666666666"/>
      <point x="460.6666666666666" y="710.0"/>
      <point x="367.3333333333333" y="710.0" type="curve"/>
      <point x="320.3333333333333" y="710.0"/>
      <point x="290.6666666666667" y="706.6666666666667"/>
      <point x="259.6666666666667" y="700.0" type="curve"/>
      <point x="266.33333333333337" y="659.3333333333333"/>
      <point x="268.0" y="621.3333333333333"/>
      <point x="261.66666666666674" y="577.3333333333333" type="curve" smooth="yes"/>
      <point x="258.3333333333334" y="557.6666666666665" type="line"/>
      <point x="243.0" y="448.0"/>
      <point x="240.33333333333334" y="374.3333333333333"/>
      <point x="258.99999999999994" y="347.33333333333337" type="curve" smooth="yes"/>
      <point x="277.6666666666665" y="320.0"/>
      <point x="319.66666666666663" y="310.6666666666667"/>
      <point x="378.6666666666665" y="310.6666666666667" type="curve"/>
    </contour>
    <component base="period"/>
  </outline>
</glyph>
<glyph name="comma" format="2">
  <advance width="600.0"/>
  <unicode hex="002C"/>
  <outline>
    <contour>
      <point x="147.33333333333334" y="-203.99999999999994" type="curve" smooth="yes"/>
      <point x="182.0" y="-203.99999999999994"/>
      <point x="202.33333333333334" y="-197.0"/>
      <point x="226.99999999999997" y="-175.66666666666666" type="curve" smooth="yes"/>
      <point x="297.33333333333326" y="-111.3333333333333"/>
      <point x="378.66666666666663" y="14.33333333333333"/>
      <point x="398.9999999999999" y="101.66666666666669" type="curve" smooth="yes"/>
      <point x="416.3333333333333" y="178.00000000000003"/>
      <point x="377.99999999999994" y="207.3333333333334"/>
      <point x="263.6666666666667" y="207.3333333333334" type="curve" smooth="yes"/>
      <point x="241.33333333333326" y="207.3333333333334"/>
      <point x="210.00000000000003" y="204.6666666666667"/>
      <point x="175.33333333333337" y="200.00000000000006" type="curve"/>
      <point x="143.33333333333334" y="58.66666666666663"/>
      <point x="89.66666666666666" y="-70.00000000000001"/>
      <point x="25.999999999999996" y="-154.66666666666666" type="curve"/>
      <point x="55.99999999999999" y="-188.0"/>
      <point x="94.00000000000001" y="-203.99999999999994"/>
    </contour>
  </outline>
</glyph>
<glyph name="W" format="2">
  <advance width="600.0"/>
  <unicode hex="0057"/>
  <anchor x="409.79953020519997" y="711.0" name="top"/>
  <outline>
    <contour>
      <point x="124.66666666666669" y="701.3333333333333" type="curve"/>
      <point x="126.66666666666664" y="676.9999999999999"/>
      <point x="120.33333333333334" y="630.0"/>
      <point x="107.33333333333334" y="577.9999999999999" type="curve" smooth="yes"/>
      <point x="13.333333333333329" y="194.6666666666666"/>
      <point x="10.000000000000004" y="76.33333333333331"/>
      <point x="57.33333333333333" y="12.0" type="curve" smooth="yes"/>
      <point x="67.99999999999997" y="-2.0000000000000018"/>
      <point x="92.33333333333331" y="-9.666666666666666"/>
      <point x="118.33333333333333" y="-10.0" type="curve" smooth="yes"/>
      <point x="129.33333333333334" y="-10.0"/>
      <point x="142.33333333333331" y="-8.333333333333332"/>
      <point x="151.3333333333334" y="-6.0" type="curve"/>
      <point x="193.00000000000009" y="44.33333333333335"/>
      <point x="230.33333333333343" y="104.00000000000003"/>
      <point x="289.3333333333334" y="224.6666666666667" type="curve"/>
      <point x="243.9999999999999" y="210.66666666666669" type="line"/>
      <point x="313.0" y="194.0" type="line"/>
      <point x="286.0" y="229.66666666666669" type="line"/>
      <point x="277.0" y="97.33333333333337"/>
      <point x="279.99999999999994" y="44.33333333333334"/>
      <point x="300.33333333333337" y="14.0" type="curve" smooth="yes"/>
      <point x="312.0000000000001" y="-2.333333333333332"/>
      <point x="333.99999999999994" y="-10.0"/>
      <point x="362.0" y="-10.0" type="curve" smooth="yes"/>
      <point x="375.0" y="-10.0"/>
      <point x="389.33333333333326" y="-8.0"/>
      <point x="401.6666666666666" y="-5.333333333333334" type="curve"/>
      <point x="497.66666666666686" y="93.66666666666667"/>
      <point x="577.0000000000002" y="272.33333333333337"/>
      <point x="649.9999999999998" y="557.6666666666669" type="curve"/>
      <point x="677.8438311005334" y="667.6782866896666"/>
      <point x="651.6792452830333" y="709.3333333333334"/>
      <point x="569.0" y="709.3333333333334" type="curve"/>
      <point x="542.1538461538333" y="709.3333333333334"/>
      <point x="527.0000000000001" y="707.3333333333334"/>
      <point x="510.99999999999994" y="702.6666666666666" type="curve"/>
      <point x="497.3333333333334" y="493.66666666666674"/>
      <point x="433.77066702860003" y="291.87876262219993"/>
      <point x="357.3333333333333" y="143.99999999999997" type="curve"/>
      <point x="406.99999999999994" y="179.33333333333331" type="line"/>
      <point x="332.66666666666663" y="195.0" type="line"/>
      <point x="375.0" y="141.66666666666666" type="line"/>
      <point x="363.3333333333333" y="230.33333333333331"/>
      <point x="376.33333333333326" y="362.33333333333326"/>
      <point x="414.66666666666663" y="514.6666666666667" type="curve"/>
      <point x="425.3333333333334" y="557.0000000000002"/>
      <point x="400.0" y="581.6666666666666"/>
      <point x="356.66666666666674" y="581.6666666666666" type="curve"/>
      <point x="330.0" y="581.6666666666666" type="line"/>
      <point x="280.3447203700667" y="381.0457671283333"/>
      <point x="237.59112761280002" y="275.8685060913999"/>
      <point x="160.0" y="145.33333333333326" type="curve"/>
      <point x="210.66666666666669" y="180.0" type="line"/>
      <point x="140.00000000000003" y="194.33333333333331" type="line"/>
      <point x="171.00000000000006" y="138.33333333333337" type="line"/>
      <point x="180.66815906346665" y="236.3448133086667"/>
      <point x="206.10395963900004" y="366.02961347646675"/>
      <point x="264.99999999999994" y="569.9999999999999" type="curve" smooth="yes"/>
      <point x="290.80108288790007" y="659.1342013492334"/>
      <point x="266.3494623656" y="709.3333333333334"/>
      <point x="187.33333333333337" y="709.3333333333334" type="curve" smooth="yes"/>
      <point x="166.48401826483334" y="709.3333333333334"/>
      <point x="146.0" y="705.6666666666667"/>
    </contour>
  </outline>
</glyph>
<glyph name="h" format="2">
  <advance width="600.0"/>
  <unicode hex="0068"/>
  <outline>
    <contour>
      <point x="151.66666666666666" y="750.0" type="curve"/>
      <point x="159.0" y="716.3333333333334"/>
      <point x="156.0" y="673.0"/>
      <point x="147.0" y="627.0000000000001" type="curve" smooth="yes"/>
      <point x="113.66666666666667" y="458.3333333333333"/>
      <point x="45.33333333333333" y="342.66666666666663"/>
      <point x="2.6666666666666634" y="160.33333333333331" type="curve" smooth="yes"/>
      <point x="-19.0" y="67.66666666666666"/>
      <point x="19.666666666666664" y="-5.666666666666666"/>
      <point x="121.0" y="-5.666666666666666" type="curve" smooth="yes"/>
      <point x="139.33333333333331" y="-5.666666666666666"/>
      <point x="158.0" y="-3.333333333333333"/>
      <point x="175.33333333333337" y="-2.220446049250313e-16" type="curve"/>
      <point x="184.0" y="209.33333333333331"/>
      <point x="264.0" y="329.33333333333326"/>
      <point x="335.0" y="581.0000000000001" type="curve" smooth="yes"/>
      <point x="369.66666666666663" y="707.3333333333335"/>
      <point x="323.3333333333333" y="759.3333333333334"/>
      <point x="223.33333333333331" y="759.3333333333334" type="curve" smooth="yes"/>
      <point x="197.66666666666669" y="759.3333333333334"/>
      <point x="175.66666666666663" y="756.0"/>
    </contour>
    <contour>
      <point x="487.0" y="559.0" type="curve" smooth="yes"/>
      <point x="420.6666666666667" y="559.0"/>
      <point x="337.99999999999994" y="493.66666666666663"/>
      <point x="287.6666666666667" y="412.3333333333333" type="curve"/>
      <point x="246.33333333333334" y="412.3333333333333" type="line"/>
      <point x="207.66666666666666" y="240.33333333333331" type="line"/>
      <point x="250.33333333333334" y="319.66666666666663"/>
      <point x="312.33333333333337" y="365.00000000000006"/>
      <point x="368.33333333333326" y="365.00000000000006" type="curve" smooth="yes"/>
      <point x="380.33333333333337" y="365.00000000000006"/>
      <point x="391.3333333333333" y="362.6666666666667"/>
      <point x="399.3333333333333" y="358.0" type="curve" smooth="yes"/>
      <point x="355.33333333333337" y="292.6666666666667"/>
      <point x="317.6666666666667" y="213.3333333333333"/>
      <point x="306.0" y="160.99999999999997" type="curve" smooth="yes"/>
      <point x="289.6666666666666" y="81.99999999999999"/>
      <point x="352.3333333333333" y="-8.666666666666666"/>
      <point x="420.0" y="-8.666666666666666" type="curve" smooth="yes"/>
      <point x="459.6666666666666" y="-8.666666666666666"/>
      <point x="489.3333333333334" y="6.333333333333333"/>
      <point x="512.6666666666666" y="30.33333333333333" type="curve" smooth="yes"/>
      <point x="534.6666666666666" y="52.99999999999999"/>
      <point x="549.9999999999999" y="83.66666666666666"/>
      <point x="563.6666666666666" y="139.0" type="curve" smooth="yes"/>
      <point x="569.3333333333334" y="160.66666666666666"/>
      <point x="571.3333333333333" y="181.66666666666666"/>
      <point x="571.6666666666666" y="190.33333333333337" type="curve"/>
      <point x="565.6666666666667" y="190.33333333333337" type="line"/>
      <point x="554.0" y="179.0"/>
      <point x="537.0" y="171.33333333333331"/>
      <point x="522.3333333333333" y="171.33333333333331" type="curve" smooth="yes"/>
      <point x="515.3333333333333" y="171.33333333333331"/>
      <point x="510.3333333333333" y="172.33333333333334"/>
      <point x="506.66666666666663" y="173.33333333333331" type="curve" smooth="yes"/>
      <point x="509.66666666666663" y="184.99999999999997"/>
      <point x="515.6666666666665" y="202.66666666666663"/>
      <point x="521.6666666666666" y="219.33333333333331" type="curve" smooth="yes"/>
      <point x="537.3333333333333" y="267.3333333333333"/>
      <point x="561.3333333333333" y="319.99999999999994"/>
      <point x="576.3333333333333" y="374.3333333333333" type="curve" smooth="yes"/>
      <point x="597.3333333333333" y="451.66666666666674"/>
      <point x="552.6666666666666" y="559.0"/>
    </contour>
  </outline>
</glyph>
<glyph name="w" format="2">
  <advance width="600.0"/>
  <unicode hex="0077"/>
  <outline>
    <contour>
      <point x="307.66666666666663" y="462.6666666666667" type="curve"/>
      <point x="299.0" y="352.66666666666663"/>
      <point x="255.99999999999997" y="286.66666666666663"/>
      <point x="242.66666666666666" y="188.00000000000003" type="curve" smooth="yes"/>
      <point x="227.33333333333331" y="67.0"/>
      <point x="271.6666666666667" y="-10.0"/>
      <point x="348.0" y="-10.0" type="curve"/>
      <point x="352.99999999999994" y="-10.0" type="line"/>
      <point x="457.0" y="-10.0"/>
      <point x="540.3333333333334" y="125.33333333333336"/>
      <point x="584.3333333333335" y="322.0" type="curve" smooth="yes"/>
      <point x="587.0000000000001" y="334.00000000000006" type="line" smooth="yes"/>
      <point x="606.3333333333335" y="418.3333333333333"/>
      <point x="602.9999999999999" y="493.66666666666646"/>
      <point x="570.6666666666667" y="527.3333333333333" type="curve" smooth="yes"/>
      <point x="553.0000000000001" y="547.0"/>
      <point x="528.9999999999999" y="556.9999999999999"/>
      <point x="497.9999999999998" y="556.9999999999999" type="curve" smooth="yes"/>
      <point x="478.6666666666667" y="556.9999999999999"/>
      <point x="454.33333333333326" y="552.9999999999999"/>
      <point x="430.6666666666667" y="546.0" type="curve"/>
      <point x="430.0" y="540.0" type="line"/>
      <point x="455.33333333333337" y="500.3333333333332"/>
      <point x="461.33333333333326" y="427.99999999999994"/>
      <point x="438.0" y="336.0000000000001" type="curve" smooth="yes"/>
      <point x="435.3333333333333" y="325.66666666666663" type="line" smooth="yes"/>
      <point x="415.33333333333337" y="248.66666666666669"/>
      <point x="382.6666666666667" y="177.00000000000003"/>
      <point x="349.0" y="151.66666666666669" type="curve"/>
      <point x="343.0" y="151.66666666666669" type="line"/>
      <point x="336.0" y="174.99999999999994"/>
      <point x="335.0000000000001" y="200.99999999999997"/>
      <point x="343.3333333333335" y="241.0" type="curve" smooth="yes"/>
      <point x="353.6666666666668" y="290.33333333333337"/>
      <point x="372.66666666666674" y="333.33333333333326"/>
      <point x="385.0000000000001" y="397.33333333333337" type="curve" smooth="yes"/>
      <point x="393.3333333333335" y="441.0"/>
      <point x="377.0" y="467.66666666666674"/>
      <point x="333.3333333333333" y="467.66666666666674" type="curve" smooth="yes"/>
      <point x="323.0000000000001" y="467.66666666666674"/>
      <point x="314.66666666666674" y="465.6666666666667"/>
    </contour>
    <contour>
      <point x="92.66666666666669" y="549.3333333333333" type="curve"/>
      <point x="100.00000000000001" y="518.0"/>
      <point x="99.00000000000001" y="490.00000000000006"/>
      <point x="88.33333333333337" y="441.0" type="curve" smooth="yes"/>
      <point x="67.66666666666667" y="348.3333333333335"/>
      <point x="25.66666666666667" y="262.66666666666663"/>
      <point x="12.333333333333346" y="158.66666666666666" type="curve" smooth="yes"/>
      <point x="0.6666666666666767" y="73.0"/>
      <point x="46.333333333333336" y="-10.0"/>
      <point x="126.6666666666667" y="-10.0" type="curve" smooth="yes"/>
      <point x="131.66666666666669" y="-10.0" type="line" smooth="yes"/>
      <point x="170.66666666666666" y="-10.0"/>
      <point x="214.66666666666669" y="28.666666666666664"/>
      <point x="240.33333333333337" y="85.66666666666667" type="curve"/>
      <point x="261.00000000000006" y="85.66666666666667" type="line"/>
      <point x="261.0" y="219.66666666666666" type="line"/>
      <point x="236.00000000000003" y="186.00000000000006"/>
      <point x="212.33333333333337" y="165.3333333333334"/>
      <point x="177.33333333333334" y="150.00000000000006" type="curve" smooth="yes"/>
      <point x="171.33333333333331" y="150.00000000000006" type="line"/>
      <point x="170.99999999999997" y="175.6666666666667"/>
      <point x="179.33333333333323" y="209.33333333333337"/>
      <point x="190.99999999999994" y="255.33333333333337" type="curve" smooth="yes"/>
      <point x="203.33333333333331" y="304.66666666666663"/>
      <point x="222.99999999999994" y="347.66666666666674"/>
      <point x="236.66666666666669" y="407.00000000000006" type="curve" smooth="yes"/>
      <point x="258.6666666666667" y="500.3333333333333"/>
      <point x="223.33333333333334" y="555.3333333333333"/>
      <point x="138.33333333333331" y="555.3333333333333" type="curve" smooth="yes"/>
      <point x="121.66666666666667" y="555.3333333333333"/>
      <point x="106.66666666666669" y="552.9999999999999"/>
    </contour>
  </outline>
</glyph>
<glyph name="x" format="2">
  <advance width="600.3333333333334"/>
  <unicode hex="0078"/>
  <outline>
    <contour>
      <point x="96.0" y="530.3333333333333" type="curve"/>
      <point x="79.0" y="503.3333333333333"/>
      <point x="67.00000000000001" y="473.66666666666663"/>
      <point x="58.66666666666668" y="438.6666666666667" type="curve" smooth="yes"/>
      <point x="42.66666666666668" y="370.0"/>
      <point x="57.33333333333334" y="339.33333333333337"/>
      <point x="99.0" y="339.33333333333337" type="curve" smooth="yes"/>
      <point x="127.33333333333329" y="339.33333333333337"/>
      <point x="155.6666666666667" y="359.6666666666667"/>
      <point x="187.0" y="410.66666666666674" type="curve"/>
      <point x="193.66666666666666" y="409.3333333333333" type="line"/>
      <point x="201.33333333333334" y="300.6666666666668"/>
      <point x="228.0" y="178.66666666666663"/>
      <point x="260.33333333333337" y="91.0" type="curve" smooth="yes"/>
      <point x="285.0" y="24.666666666666668"/>
      <point x="336.0" y="-10.666666666666666"/>
      <point x="404.66666666666663" y="-10.666666666666666" type="curve" smooth="yes"/>
      <point x="444.33333333333337" y="-10.666666666666666"/>
      <point x="478.0" y="0.0"/>
      <point x="502.33333333333337" y="26.333333333333332" type="curve" smooth="yes"/>
      <point x="522.6666666666667" y="48.33333333333333"/>
      <point x="538.0000000000001" y="80.66666666666666"/>
      <point x="551.0000000000001" y="133.33333333333331" type="curve" smooth="yes"/>
      <point x="558.6666666666669" y="163.0"/>
      <point x="562.3333333333335" y="184.66666666666663"/>
      <point x="564.0000000000001" y="213.66666666666669" type="curve"/>
      <point x="558.0000000000001" y="213.66666666666669" type="line"/>
      <point x="508.33333333333326" y="184.33333333333334"/>
      <point x="471.3333333333333" y="168.66666666666669"/>
      <point x="424.0" y="161.33333333333334" type="curve" smooth="yes"/>
      <point x="405.99999999999994" y="190.33333333333337"/>
      <point x="397.6666666666667" y="218.99999999999994"/>
      <point x="389.66666666666663" y="253.0" type="curve" smooth="yes"/>
      <point x="376.0" y="312.0"/>
      <point x="370.33333333333337" y="375.66666666666663"/>
      <point x="368.33333333333337" y="449.0" type="curve" smooth="yes"/>
      <point x="366.6666666666667" y="515.3333333333334"/>
      <point x="321.0" y="556.6666666666666"/>
      <point x="251.33333333333343" y="556.6666666666666" type="curve" smooth="yes"/>
      <point x="191.33333333333331" y="556.6666666666666"/>
      <point x="135.33333333333334" y="545.6666666666666"/>
    </contour>
    <contour>
      <point x="443.33333333333337" y="547.6666666666666" type="curve"/>
      <point x="431.6666666666667" y="475.33333333333337"/>
      <point x="410.3333333333333" y="403.6666666666666"/>
      <point x="382.66666666666663" y="343.33333333333326" type="curve"/>
      <point x="343.00000000000006" y="343.33333333333326" type="line"/>
      <point x="381.3333333333333" y="218.33333333333337" type="line"/>
      <point x="461.0" y="263.66666666666663"/>
      <point x="550.6666666666666" y="343.00000000000006"/>
      <point x="597.6666666666665" y="415.33333333333326" type="curve" smooth="yes"/>
      <point x="612.6666666666665" y="439.0"/>
      <point x="621.0" y="459.3333333333333"/>
      <point x="625.0000000000002" y="477.0" type="curve" smooth="yes"/>
      <point x="635.0000000000001" y="521.3333333333333"/>
      <point x="608.3333333333333" y="558.6666666666666"/>
      <point x="529.6666666666665" y="558.6666666666666" type="curve" smooth="yes"/>
      <point x="494.0000000000001" y="558.6666666666666"/>
      <point x="467.66666666666663" y="555.9999999999999"/>
    </contour>
    <contour>
      <point x="241.66666666666666" y="292.3333333333333" type="line"/>
      <point x="127.66666666666669" y="221.66666666666663"/>
      <point x="25.66666666666667" y="144.00000000000003"/>
      <point x="-32.66666666666667" y="65.0" type="curve"/>
      <point x="-5.999999999999995" y="13.333333333333334"/>
      <point x="41.66666666666667" y="-10.0"/>
      <point x="87.66666666666667" y="-10.0" type="curve" smooth="yes"/>
      <point x="123.99999999999997" y="-10.0"/>
      <point x="149.33333333333331" y="-2.3333333333333335"/>
      <point x="165.33333333333331" y="14.666666666666664" type="curve" smooth="yes"/>
      <point x="191.66666666666663" y="43.0"/>
      <point x="206.33333333333337" y="98.0"/>
      <point x="228.33333333333331" y="168.0" type="curve"/>
      <point x="291.6666666666667" y="168.0" type="line"/>
    </contour>
  </outline>
</glyph>
<glyph name="bar" format="2">
  <advance width="600.0"/>
  <unicode hex="007C"/>
  <outline>
    <contour>
      <point x="303.0" y="758.3333333333334" type="curve"/>
      <point x="304.3333333333333" y="723.0"/>
      <point x="302.66666666666674" y="686.3333333333334"/>
      <point x="295.66666666666674" y="646.6666666666667" type="curve" smooth="yes"/>
      <point x="249.27633974333327" y="387.68281828166664"/>
      <point x="135.33333333333334" y="182.33333333333334"/>
      <point x="109.00000000000001" y="-9.999999999999979" type="curve" smooth="yes"/>
      <point x="92.33333333333334" y="-124.0"/>
      <point x="129.66666666666669" y="-165.33333333333331"/>
      <point x="231.66666666666669" y="-165.33333333333331" type="curve" smooth="yes"/>
      <point x="257.99999999999994" y="-165.33333333333331"/>
      <point x="279.6666666666666" y="-162.33333333333331"/>
      <point x="294.66666666666663" y="-156.66666666666663" type="curve"/>
      <point x="296.3333333333333" y="111.66666666666667"/>
      <point x="445.6666666666666" y="361.66666666666663"/>
      <point x="491.0" y="624.0" type="curve" smooth="yes"/>
      <point x="508.33333333333337" y="725.3333333333334"/>
      <point x="481.0" y="765.6666666666666"/>
      <point x="383.33333333333326" y="765.6666666666666" type="curve" smooth="yes"/>
      <point x="356.3333333333333" y="765.6666666666666"/>
      <point x="326.3333333333333" y="763.0000000000001"/>
    </contour>
  </outline>
</glyph>
<glyph name="yen" format="2">
  <advance width="600.0"/>
  <unicode hex="00A5"/>
  <outline>
    <contour>
      <point x="63.333333333333336" y="430.0" type="line"/>
      <point x="53.66666666666666" y="416.66666666666663"/>
      <point x="45.66666666666667" y="403.66666666666663"/>
      <point x="41.33333333333333" y="381.99999999999994" type="curve" smooth="yes"/>
      <point x="28.333333333333336" y="317.33333333333337"/>
      <point x="51.33333333333333" y="286.6666666666667"/>
      <point x="120.0" y="286.6666666666667" type="curve" smooth="yes"/>
      <point x="189.33333333333331" y="286.6666666666667" type="line"/>
      <point x="225.66666666666666" y="430.0" type="line"/>
    </contour>
    <contour>
      <point x="424.3333333333333" y="430.0" type="line"/>
      <point x="388.0" y="286.6666666666667" type="line"/>
      <point x="576.6666666666667" y="286.6666666666667" type="line"/>
      <point x="588.3333333333333" y="306.0"/>
      <point x="597.3333333333334" y="322.6666666666667"/>
      <point x="603.0" y="347.6666666666667" type="curve" smooth="yes"/>
      <point x="616.6666666666667" y="404.6666666666667"/>
      <point x="599.9999999999999" y="430.0"/>
      <point x="542.6666666666666" y="430.0" type="curve"/>
    </contour>
    <contour>
      <point x="528.6666666666667" y="81.66666666666667" type="line"/>
      <point x="535.6666666666666" y="92.66666666666669"/>
      <point x="542.0" y="105.33333333333334"/>
      <point x="546.3333333333334" y="125.00000000000003" type="curve" smooth="yes"/>
      <point x="561.6666666666667" y="194.0"/>
      <point x="545.0" y="225.0"/>
      <point x="469.00000000000006" y="225.0" type="curve"/>
      <point x="22.333333333333336" y="225.0" type="line"/>
      <point x="11.333333333333332" y="207.00000000000003"/>
      <point x="1.6666666666666679" y="189.0"/>
      <point x="-4.000000000000007" y="165.66666666666669" type="curve" smooth="yes"/>
      <point x="-17.33333333333334" y="108.00000000000001"/>
      <point x="0.3333333333333357" y="81.66666666666667"/>
      <point x="57.66666666666667" y="81.66666666666667" type="curve" smooth="yes"/>
    </contour>
    <contour>
      <point x="387.33333333333337" y="231.66666666666666" type="curve"/>
      <point x="491.66666666666674" y="309.66666666666663"/>
      <point x="583.3333333333333" y="422.0"/>
      <point x="645.6666666666666" y="604.3333333333334" type="curve" smooth="yes"/>
      <point x="670.0" y="675.6666666666666"/>
      <point x="633.6666666666666" y="709.3333333333334"/>
      <point x="548.6666666666667" y="709.3333333333334" type="curve" smooth="yes"/>
      <point x="517.9999999999999" y="709.3333333333334"/>
      <point x="487.9999999999999" y="707.0"/>
      <point x="463.33333333333326" y="701.6666666666666" type="curve"/>
      <point x="433.6666666666667" y="556.0000000000001"/>
      <point x="371.6666666666667" y="422.33333333333337"/>
      <point x="293.66666666666674" y="333.3333333333334" type="curve"/>
      <point x="350.00000000000006" y="367.6666666666667" type="line"/>
      <point x="289.3333333333333" y="367.66666666666674" type="line"/>
      <point x="322.66666666666674" y="325.0" type="line"/>
      <point x="297.99999999999994" y="430.66666666666663"/>
      <point x="297.0" y="496.66666666666674"/>
      <point x="316.6666666666667" y="614.6666666666667" type="curve" smooth="yes"/>
      <point x="328.3333333333333" y="682.0"/>
      <point x="290.99999999999994" y="709.3333333333334"/>
      <point x="208.66666666666666" y="709.3333333333334" type="curve" smooth="yes"/>
      <point x="184.66666666666666" y="709.3333333333334"/>
      <point x="159.33333333333334" y="706.6666666666667"/>
      <point x="137.33333333333334" y="702.0" type="curve"/>
      <point x="94.33333333333331" y="424.6666666666667"/>
      <point x="125.33333333333331" y="310.6666666666667"/>
      <point x="197.33333333333334" y="231.33333333333334" type="curve"/>
      <point x="173.0" y="184.33333333333334"/>
      <point x="155.33333333333337" y="138.33333333333331"/>
      <point x="148.33333333333334" y="94.33333333333333" type="curve" smooth="yes"/>
      <point x="137.33333333333337" y="26.333333333333332"/>
      <point x="163.33333333333334" y="-9.333333333333334"/>
      <point x="257.6666666666667" y="-9.333333333333334" type="curve" smooth="yes"/>
      <point x="289.6666666666667" y="-9.333333333333334"/>
      <point x="314.33333333333326" y="-7.0"/>
      <point x="343.0" y="-1.9999999999999991" type="curve"/>
      <point x="337.33333333333337" y="31.0"/>
      <point x="341.0" y="70.99999999999999"/>
      <point x="350.66666666666674" y="110.00000000000003" type="curve" smooth="yes"/>
      <point x="359.6666666666667" y="148.99999999999997"/>
      <point x="372.0" y="191.66666666666666"/>
    </contour>
  </outline>
</glyph>
<glyph name="ordmasculine" format="2">
  <advance width="600.0"/>
  <unicode hex="00BA"/>
  <outline>
    <contour>
      <point x="405.6666666666667" y="762.0000000000001" type="curve" smooth="yes"/>
      <point x="265.3333333333333" y="762.0000000000001"/>
      <point x="178.6666666666667" y="673.0"/>
      <point x="142.33333333333334" y="521.3333333333334" type="curve" smooth="yes"/>
      <point x="139.33333333333331" y="508.6666666666667" type="line" smooth="yes"/>
      <point x="105.66666666666669" y="367.0"/>
      <point x="173.33333333333334" y="282.0"/>
      <point x="312.6666666666666" y="282.0" type="curve" smooth="yes"/>
      <point x="451.0" y="282.0"/>
      <point x="534.9999999999999" y="335.3333333333334"/>
      <point x="573.6666666666666" y="492.0" type="curve" smooth="yes"/>
      <point x="576.9999999999999" y="505.6666666666666" type="line" smooth="yes"/>
      <point x="613.6666666666665" y="656.0000000000001"/>
      <point x="554.0000000000001" y="762.0000000000001"/>
    </contour>
    <contour>
      <point x="393.6666666666667" y="622.3333333333334" type="curve" smooth="yes"/>
      <point x="405.66666666666663" y="622.3333333333333"/>
      <point x="414.0" y="621.0"/>
      <point x="422.66666666666663" y="618.6666666666669" type="curve"/>
      <point x="427.0" y="592.6666666666666"/>
      <point x="424.33333333333337" y="565.3333333333333"/>
      <point x="413.0" y="515.6666666666666" type="curve" smooth="yes"/>
      <point x="410.3333333333333" y="505.0" type="line" smooth="yes"/>
      <point x="396.0" y="443.00000000000006"/>
      <point x="371.66666666666674" y="422.6666666666667"/>
      <point x="333.3333333333333" y="422.6666666666667" type="curve" smooth="yes"/>
      <point x="318.0" y="422.6666666666667"/>
      <point x="307.99999999999994" y="423.6666666666666"/>
      <point x="297.66666666666663" y="426.66666666666663" type="curve"/>
      <point x="293.3333333333333" y="445.0"/>
      <point x="293.33333333333337" y="469.0"/>
      <point x="302.3333333333333" y="501.6666666666667" type="curve" smooth="yes"/>
      <point x="304.66666666666663" y="510.3333333333333" type="line" smooth="yes"/>
      <point x="326.6666666666667" y="591.6666666666666"/>
      <point x="353.00000000000006" y="622.3333333333334"/>
    </contour>
  </outline>
</glyph>
<glyph name="Oslash" format="2">
  <advance width="600.0"/>
  <unicode hex="00D8"/>
  <anchor x="410.00000000000006" y="712.0" name="top"/>
  <outline>
    <contour>
      <point x="665.9999999999999" y="767.0" type="curve"/>
      <point x="633.9999999999999" y="777.3333333333334"/>
      <point x="597.6666666666666" y="783.3333333333334"/>
      <point x="555.6666666666666" y="783.3333333333334" type="curve" smooth="yes"/>
      <point x="512.3333333333334" y="783.3333333333334"/>
      <point x="492.0" y="768.6666666666665"/>
      <point x="477.3333333333334" y="732.0" type="curve" smooth="yes"/>
      <point x="464.0" y="696.6666666666665"/>
      <point x="450.66666666666674" y="665.6666666666667"/>
      <point x="438.66666666666663" y="637.3333333333334" type="curve" smooth="yes"/>
      <point x="424.00000000000006" y="604.0"/>
      <point x="412.00000000000006" y="577.666666666667"/>
      <point x="400.66666666666686" y="555.3333333333331" type="curve" smooth="yes"/>
      <point x="377.6666666666668" y="512.6666666666666"/>
      <point x="351.33333333333326" y="465.6666666666666"/>
      <point x="322.9999999999999" y="420.33333333333337" type="curve" smooth="yes"/>
      <point x="285.3333333333333" y="359.3333333333333"/>
      <point x="257.0" y="311.6666666666666"/>
      <point x="222.99999999999997" y="247.0" type="curve"/>
      <point x="275.6666666666666" y="292.33333333333337" type="line"/>
      <point x="211.66666666666669" y="292.33333333333337" type="line"/>
      <point x="76.33333333333336" y="80.66666666666669" type="line"/>
      <point x="40.33333333333334" y="27.666666666666664"/>
      <point x="-7.666666666666668" y="-24.333333333333332"/>
      <point x="-48.666666666666664" y="-56.33333333333333" type="curve"/>
      <point x="-26.000000000000007" y="-74.0"/>
      <point x="8.333333333333329" y="-85.0"/>
      <point x="55.999999999999986" y="-85.0" type="curve" smooth="yes"/>
      <point x="107.00000000000003" y="-85.0"/>
      <point x="151.33333333333334" y="-66.66666666666667"/>
      <point x="184.33333333333331" y="-6.333333333333343" type="curve"/>
      <point x="203.33333333333326" y="19.333333333333325"/>
      <point x="224.33333333333331" y="52.33333333333333"/>
      <point x="238.0" y="89.0" type="curve" smooth="yes"/>
      <point x="238.24133505533328" y="122.65596900373333"/>
      <point x="237.66666666666666" y="143.33333333333331"/>
      <point x="236.3333333333334" y="173.66666666666669" type="curve" smooth="yes"/>
      <point x="269.6666666666667" y="205.99999999999997"/>
      <point x="303.3333333333333" y="243.66666666666674"/>
      <point x="328.3333333333333" y="278.33333333333326" type="curve" smooth="yes"/>
      <point x="356.6666666666666" y="313.33333333333337"/>
      <point x="382.66666666666674" y="359.33333333333354"/>
      <point x="397.33333333333337" y="399.00000000000017" type="curve"/>
      <point x="374.6666666666668" y="388.99999999999994" type="line"/>
      <point x="436.6666666666667" y="388.99999999999994" type="line"/>
      <point x="482.0" y="465.33333333333337" type="line"/>
      <point x="536.3333333333334" y="540.6666666666666"/>
      <point x="593.0" y="633.0"/>
    </contour>
    <component base="O" yOffset="-0.3333333333333335"/>
  </outline>
</glyph>
<glyph name="ae" format="2">
  <advance width="600.0"/>
  <unicode hex="00E6"/>
  <anchor x="375.0" y="557.6666666666666" name="top"/>
  <outline>
    <contour>
      <point x="225.00000000000006" y="557.3333333333335" type="curve" smooth="yes"/>
      <point x="173.33333333333337" y="557.3333333333335"/>
      <point x="140.33333333333331" y="547.6666666666667"/>
      <point x="116.00000000000001" y="527.6666666666664" type="curve" smooth="yes"/>
      <point x="89.0" y="505.00000000000006"/>
      <point x="74.66666666666666" y="477.3333333333333"/>
      <point x="66.33333333333331" y="435.66666666666663" type="curve" smooth="yes"/>
      <point x="61.33333333333331" y="411.0"/>
      <point x="59.666666666666664" y="389.00000000000006"/>
      <point x="61.66666666666666" y="368.3333333333333" type="curve"/>
      <point x="67.66666666666664" y="368.3333333333333" type="line"/>
      <point x="98.3333333333333" y="381.66666666666663"/>
      <point x="135.33333333333331" y="392.33333333333337"/>
      <point x="182.0" y="392.33333333333337" type="curve" smooth="yes"/>
      <point x="245.33333333333331" y="392.33333333333337"/>
      <point x="263.99999999999994" y="373.33333333333337"/>
      <point x="253.66666666666666" y="333.33333333333337" type="curve"/>
      <point x="213.33333333333337" y="174.99999999999994" type="line"/>
      <point x="196.3333333333333" y="150.66666666666666"/>
      <point x="177.33333333333334" y="144.33333333333331"/>
      <point x="155.0" y="144.33333333333331" type="curve" smooth="yes"/>
      <point x="152.00000000000006" y="144.33333333333331" type="line" smooth="yes"/>
      <point x="130.66666666666663" y="144.33333333333331"/>
      <point x="123.33333333333329" y="157.00000000000003"/>
      <point x="129.33333333333331" y="181.66666666666669" type="curve" smooth="yes"/>
      <point x="131.3333333333333" y="189.66666666666669" type="line" smooth="yes"/>
      <point x="134.99999999999994" y="203.66666666666666"/>
      <point x="140.00000000000003" y="216.33333333333334"/>
      <point x="147.6666666666666" y="228.3333333333333" type="curve" smooth="yes"/>
      <point x="163.00000000000006" y="233.66666666666669"/>
      <point x="177.00000000000003" y="235.0"/>
      <point x="196.33333333333331" y="235.0" type="curve"/>
      <point x="227.3333333333333" y="235.0"/>
      <point x="249.33333333333334" y="228.0"/>
      <point x="285.6666666666666" y="216.99999999999997" type="curve"/>
      <point x="308.99999999999994" y="309.6666666666666" type="line"/>
      <point x="288.00000000000006" y="309.6666666666666" type="line"/>
      <point x="267.6666666666667" y="321.3333333333333"/>
      <point x="220.3333333333333" y="332.66666666666663"/>
      <point x="172.00000000000006" y="332.66666666666663" type="curve" smooth="yes"/>
      <point x="88.33333333333334" y="332.66666666666663"/>
      <point x="15.000000000000004" y="280.3333333333333"/>
      <point x="-12.0" y="173.33333333333331" type="curve" smooth="yes"/>
      <point x="-14.666666666666664" y="162.66666666666663" type="line" smooth="yes"/>
      <point x="-44.00000000000001" y="46.0"/>
      <point x="18.666666666666664" y="-10.333333333333334"/>
      <point x="113.66666666666667" y="-10.0" type="curve" smooth="yes"/>
      <point x="178.0" y="-9.666666666666666"/>
      <point x="241.99999999999997" y="18.999999999999993"/>
      <point x="284.6666666666666" y="80.66666666666667" type="curve"/>
      <point x="247.99999999999997" y="80.66666666666669" type="line"/>
      <point x="273.66666666666663" y="13.333333333333337"/>
      <point x="333.6666666666667" y="-12.0"/>
      <point x="391.6666666666667" y="-12.0" type="curve" smooth="yes"/>
      <point x="434.00000000000006" y="-12.0"/>
      <point x="462.99999999999994" y="-6.666666666666665"/>
      <point x="487.99999999999994" y="11.666666666666671" type="curve" smooth="yes"/>
      <point x="515.3333333333333" y="31.666666666666664"/>
      <point x="532.6666666666666" y="61.33333333333335"/>
      <point x="541.0" y="108.33333333333331" type="curve"/>
      <point x="545.3333333333334" y="132.66666666666669"/>
      <point x="546.6666666666669" y="156.99999999999997"/>
      <point x="544.0" y="179.33333333333331" type="curve"/>
      <point x="538.0" y="179.33333333333331" type="line"/>
      <point x="495.99999999999994" y="163.33333333333334"/>
      <point x="463.99999999999994" y="157.00000000000003"/>
      <point x="419.3333333333333" y="157.00000000000003" type="curve" smooth="yes"/>
      <point x="396.0000000000001" y="157.00000000000003"/>
      <point x="367.66666666666663" y="160.0"/>
      <point x="353.33333333333326" y="167.66666666666663" type="curve" smooth="yes"/>
      <point x="349.00000000000006" y="183.66666666666663"/>
      <point x="348.66666666666663" y="203.33333333333331"/>
      <point x="354.99999999999994" y="227.66666666666666" type="curve"/>
      <point x="376.3333333333333" y="311.0" type="line" smooth="yes"/>
      <point x="392.3333333333332" y="374.33333333333337"/>
      <point x="412.6666666666666" y="398.66666666666674"/>
      <point x="452.3333333333333" y="398.66666666666674" type="curve" smooth="yes"/>
      <point x="466.3333333333334" y="398.66666666666674"/>
      <point x="476.33333333333326" y="396.3333333333334"/>
      <point x="483.66666666666663" y="392.3333333333334" type="curve" smooth="yes"/>
      <point x="484.6666666666667" y="385.99999999999994"/>
      <point x="483.33333333333326" y="372.00000000000006"/>
      <point x="478.9999999999999" y="355.3333333333333" type="curve"/>
      <point x="471.33333333333326" y="323.3333333333334"/>
      <point x="452.00000000000006" y="311.66666666666663"/>
      <point x="417.0" y="311.6666666666666" type="curve"/>
      <point x="383.99999999999994" y="311.6666666666666"/>
      <point x="372.6666666666667" y="314.66666666666663"/>
      <point x="342.3333333333334" y="326.0" type="curve"/>
      <point x="320.3333333333333" y="240.0" type="line"/>
      <point x="335.3333333333333" y="240.0" type="line"/>
      <point x="353.0" y="225.66666666666669"/>
      <point x="384.99999999999994" y="218.0"/>
      <point x="431.6666666666667" y="218.0" type="curve" smooth="yes"/>
      <point x="513.3333333333334" y="218.0"/>
      <point x="577.3333333333333" y="249.66666666666663"/>
      <point x="603.9999999999999" y="347.99999999999994" type="curve" smooth="yes"/>
      <point x="604.9999999999999" y="352.3333333333333"/>
      <point x="606.3333333333334" y="357.6666666666667"/>
      <point x="607.3333333333333" y="362.00000000000006" type="curve" smooth="yes"/>
      <point x="633.6666666666667" y="472.33333333333326"/>
      <point x="590.3333333333333" y="558.6666666666667"/>
      <point x="478.6666666666667" y="558.6666666666667" type="curve" smooth="yes"/>
      <point x="421.66666666666646" y="558.6666666666667"/>
      <point x="374.00000000000006" y="536.9999999999999"/>
      <point x="333.66666666666663" y="469.66666666666663" type="curve"/>
      <point x="357.66666666666663" y="469.6666666666666" type="line"/>
      <point x="338.0" y="525.6666666666669"/>
      <point x="294.0" y="557.3333333333335"/>
    </contour>
  </outline>
</glyph>
<glyph name="eogonek" format="2">
  <advance width="600.0"/>
  <unicode hex="0119"/>
  <outline>
    <contour>
      <point x="220.66666666666666" y="-111.66666666666666" type="curve" smooth="yes"/>
      <point x="204.99999999999997" y="-189.0"/>
      <point x="246.0" y="-230.66666666666669"/>
      <point x="328.66666666666663" y="-230.66666666666669" type="curve" smooth="yes"/>
      <point x="399.99999999999994" y="-230.66666666666669"/>
      <point x="440.00000000000006" y="-196.0"/>
      <point x="454.0" y="-133.66666666666669" type="curve" smooth="yes"/>
      <point x="460.0" y="-106.66666666666667"/>
      <point x="458.33333333333337" y="-84.00000000000001"/>
      <point x="450.00000000000006" y="-61.0" type="curve"/>
      <point x="444.00000000000006" y="-61.0" type="line"/>
      <point x="427.3333333333332" y="-73.33333333333336"/>
      <point x="412.33333333333337" y="-78.66666666666669"/>
      <point x="395.6666666666667" y="-78.66666666666669" type="curve" smooth="yes"/>
      <point x="373.6666666666667" y="-78.66666666666669"/>
      <point x="360.0" y="-70.33333333333331"/>
      <point x="365.66666666666663" y="-49.33333333333335" type="curve" smooth="yes"/>
      <point x="370.33333333333326" y="-29.666666666666668"/>
      <point x="392.0" y="-8.0"/>
      <point x="444.33333333333337" y="24.666666666666664" type="curve" smooth="yes"/>
      <point x="468.66666666666663" y="39.33333333333333"/>
      <point x="499.3333333333334" y="70.33333333333331"/>
      <point x="513.3333333333334" y="132.0" type="curve" smooth="yes"/>
      <point x="483.3333333333333" y="89.33333333333333"/>
      <point x="452.66666666666663" y="55.00000000000001"/>
      <point x="416.00000000000006" y="40.99999999999999" type="curve" smooth="yes"/>
      <point x="295.33333333333337" y="-4.000000000000004"/>
      <point x="232.99999999999997" y="-51.0"/>
    </contour>
    <component base="e.italic"/>
  </outline>
</glyph>
<glyph name="lcaron" format="2">
  <advance width="600.0"/>
  <unicode hex="013E"/>
  <outline>
    <contour>
      <point x="573.3333333333333" y="544.6666666666665" type="curve" smooth="yes"/>
      <point x="599.9999999999999" y="544.6666666666665"/>
      <point x="619.0" y="550.3333333333334"/>
      <point x="638.3333333333334" y="567.3333333333334" type="curve" smooth="yes"/>
      <point x="678.0" y="600.6666666666667"/>
      <point x="704.9999999999999" y="652.6666666666666"/>
      <point x="716.0" y="708.6666666666666" type="curve" smooth="yes"/>
      <point x="723.0" y="744.0000000000001"/>
      <point x="706.9999999999999" y="761.6666666666666"/>
      <point x="655.9999999999999" y="761.6666666666666" type="curve" smooth="yes"/>
      <point x="631.6666666666666" y="761.6666666666666"/>
      <point x="611.0000000000001" y="758.3333333333334"/>
      <point x="585.0000000000001" y="751.3333333333333" type="curve"/>
      <point x="567.3333333333334" y="663.6666666666666"/>
      <point x="551.3333333333333" y="619.6666666666667"/>
      <point x="519.9999999999999" y="556.6666666666666" type="curve"/>
      <point x="535.0000000000001" y="549.3333333333333"/>
      <point x="549.6666666666665" y="544.6666666666665"/>
    </contour>
    <component base="l.italic"/>
  </outline>
</glyph>
<glyph name="Nhookleft" format="2">
  <advance width="600.0"/>
  <unicode hex="019D"/>
  <outline>
    <contour>
      <point x="-53.666666666666664" y="-51.666666666666664" type="curve" smooth="yes"/>
      <point x="-72.33333333333333" y="-51.666666666666664"/>
      <point x="-81.66666666666664" y="-49.333333333333336"/>
      <point x="-95.99999999999999" y="-42.333333333333336" type="curve"/>
      <point x="-101.99999999999999" y="-42.333333333333336" type="line"/>
      <point x="-113.66666666666664" y="-64.33333333333334"/>
      <point x="-123.33333333333331" y="-88.66666666666666"/>
      <point x="-129.33333333333331" y="-112.0" type="curve" smooth="yes"/>
      <point x="-141.0" y="-161.33333333333334"/>
      <point x="-140.33333333333334" y="-194.33333333333331"/>
      <point x="-125.33333333333331" y="-214.33333333333334" type="curve" smooth="yes"/>
      <point x="-113.66666666666664" y="-230.33333333333334"/>
      <point x="-92.66666666666666" y="-237.66666666666669"/>
      <point x="-62.666666666666664" y="-237.66666666666669" type="curve" smooth="yes"/>
      <point x="-56.666666666666664" y="-237.66666666666669" type="line" smooth="yes"/>
      <point x="50.666666666666664" y="-237.66666666666669"/>
      <point x="151.66666666666666" y="-143.33333333333331"/>
      <point x="185.66666666666666" y="-10.0" type="curve" smooth="yes"/>
      <point x="187.99999999999994" y="-1.3333333333333328" type="line" smooth="yes"/>
      <point x="167.6767554381" y="65.28747528129999"/>
      <point x="121.14619883039998" y="106.33333333333333"/>
      <point x="54.33333333333334" y="116.33333333333333" type="curve"/>
      <point x="33.66666666666667" y="22.0" type="line" smooth="yes"/>
      <point x="22.666666666666664" y="-26.66666666666667"/>
      <point x="-10.999999999999998" y="-51.666666666666664"/>
    </contour>
    <component base="N" xOffset="-8.881784197001252e-16"/>
  </outline>
</glyph>
<glyph name="quoteleft" format="2">
  <advance width="600.0"/>
  <unicode hex="2018"/>
  <outline>
    <contour>
      <point x="442.0" y="751.6666666666667" type="curve" smooth="yes"/>
      <point x="403.3333333333333" y="751.6666666666667"/>
      <point x="381.33333333333337" y="744.6666666666667"/>
      <point x="359.6666666666667" y="727.3333333333334" type="curve" smooth="yes"/>
      <point x="302.6666666666667" y="683.0"/>
      <point x="246.3333333333333" y="598.6666666666667"/>
      <point x="230.0" y="533.0" type="curve" smooth="yes"/>
      <point x="212.33333333333334" y="462.0"/>
      <point x="241.66666666666666" y="434.3333333333333"/>
      <point x="336.66666666666674" y="434.3333333333333" type="curve" smooth="yes"/>
      <point x="367.66666666666674" y="434.3333333333333"/>
      <point x="395.0" y="437.0"/>
      <point x="425.00000000000006" y="441.66666666666663" type="curve"/>
      <point x="456.3333333333334" y="543.0"/>
      <point x="508.3333333333334" y="634.6666666666669"/>
      <point x="571.333333333333" y="709.9999999999999" type="curve"/>
      <point x="532.9999999999999" y="739.0"/>
      <point x="490.66666666666674" y="751.6666666666667"/>
    </contour>
  </outline>
</glyph>
<glyph name="bullet" format="2">
  <advance width="600.0"/>
  <unicode hex="2022"/>
  <outline>
    <contour>
      <point x="440.3333333333334" y="138.66666666666666" type="curve"/>
      <point x="482.00000000000006" y="303.9999999999999" type="line" smooth="yes"/>
      <point x="513.3333333333334" y="425.33333333333337"/>
      <point x="463.00000000000006" y="478.99999999999994"/>
      <point x="310.6666666666667" y="478.99999999999994" type="curve"/>
      <point x="258.3333333333333" y="478.99999999999994"/>
      <point x="212.33333333333334" y="472.3333333333333"/>
      <point x="172.33333333333334" y="460.3333333333333" type="curve"/>
      <point x="129.66666666666663" y="295.0" type="line" smooth="yes"/>
      <point x="99.66666666666666" y="174.0"/>
      <point x="150.66666666666663" y="120.0"/>
      <point x="301.0" y="120.0" type="curve" smooth="yes"/>
      <point x="353.33333333333337" y="120.0"/>
      <point x="400.0" y="126.66666666666667"/>
    </contour>
  </outline>
</glyph>
<glyph name="arrowupdown" format="2">
  <advance width="600.0"/>
  <unicode hex="2195"/>
  <outline>
    <contour>
      <point x="515.3333333333334" y="664.6666666666667" type="curve" smooth="yes"/>
      <point x="481.99999999999994" y="701.0"/>
      <point x="455.3333333333333" y="710.0"/>
      <point x="413.3333333333333" y="710.0" type="curve" smooth="yes"/>
      <point x="390.3333333333333" y="710.0"/>
      <point x="366.66666666666663" y="710.0"/>
      <point x="343.6666666666667" y="710.0" type="curve"/>
      <point x="245.00000000000003" y="653.3333333333335"/>
      <point x="158.0" y="582.0"/>
      <point x="103.99999999999997" y="524.0" type="curve" smooth="yes"/>
      <point x="65.33333333333333" y="482.00000000000006"/>
      <point x="51.33333333333334" y="460.0"/>
      <point x="44.66666666666667" y="435.0" type="curve" smooth="yes"/>
      <point x="36.00000000000001" y="400.00000000000006"/>
      <point x="59.66666666666667" y="384.6666666666667"/>
      <point x="113.99999999999999" y="384.6666666666667" type="curve" smooth="yes"/>
      <point x="141.00000000000003" y="384.6666666666667"/>
      <point x="171.66666666666666" y="387.6666666666667"/>
      <point x="195.33333333333331" y="394.33333333333337" type="curve"/>
      <point x="250.33333333333334" y="475.00000000000006"/>
      <point x="312.3333333333333" y="536.0"/>
      <point x="406.66666666666663" y="602.0" type="curve"/>
      <point x="355.33333333333337" y="583.6666666666667" type="line"/>
      <point x="415.3333333333333" y="583.6666666666667" type="line"/>
      <point x="373.99999999999994" y="602.0" type="line"/>
      <point x="435.0" y="536.0"/>
      <point x="464.33333333333337" y="480.3333333333334"/>
      <point x="478.0" y="396.33333333333337" type="curve"/>
      <point x="502.3333333333333" y="389.6666666666667"/>
      <point x="533.3333333333334" y="384.6666666666667"/>
      <point x="566.0000000000001" y="384.6666666666667" type="curve" smooth="yes"/>
      <point x="602.6666666666667" y="384.6666666666667"/>
      <point x="625.0" y="393.00000000000006"/>
      <point x="632.0000000000001" y="417.6666666666667" type="curve" smooth="yes"/>
      <point x="639.3333333333334" y="443.9999999999999"/>
      <point x="634.6666666666666" y="470.00000000000006"/>
      <point x="623.0000000000001" y="499.66666666666663" type="curve" smooth="yes"/>
      <point x="602.6666666666666" y="554.6666666666666"/>
      <point x="565.3333333333334" y="609.3333333333334"/>
    </contour>
    <contour>
      <point x="239.66666666666669" y="346.3333333333333" type="curve" smooth="yes"/>
      <point x="236.33333333333337" y="335.99999999999994" type="line" smooth="yes"/>
      <point x="222.00000000000006" y="293.0"/>
      <point x="217.0" y="250.0"/>
      <point x="222.66666666666669" y="205.66666666666666" type="curve"/>
      <point x="225.00000000000006" y="180.0"/>
      <point x="236.0" y="169.33333333333331"/>
      <point x="258.6666666666667" y="169.33333333333331" type="curve" smooth="yes"/>
      <point x="274.0" y="169.33333333333331"/>
      <point x="286.00000000000006" y="171.0"/>
      <point x="295.3333333333333" y="174.66666666666669" type="curve" smooth="yes"/>
      <point x="338.99999999999994" y="224.33333333333331"/>
      <point x="378.99999999999994" y="292.3333333333333"/>
      <point x="392.99999999999994" y="336.0" type="curve" smooth="yes"/>
      <point x="396.33333333333326" y="346.33333333333326" type="line" smooth="yes"/>
      <point x="410.33333333333326" y="389.99999999999994"/>
      <point x="414.00000000000006" y="430.33333333333337"/>
      <point x="407.99999999999994" y="477.6666666666667" type="curve"/>
      <point x="405.99999999999994" y="500.99999999999994"/>
      <point x="396.0" y="510.99999999999994"/>
      <point x="371.3333333333333" y="510.99999999999994" type="curve" smooth="yes"/>
      <point x="355.99999999999994" y="510.99999999999994"/>
      <point x="344.3333333333333" y="509.3333333333334"/>
      <point x="334.66666666666663" y="505.6666666666667" type="curve" smooth="yes"/>
      <point x="285.6666666666667" y="450.0000000000001"/>
      <point x="254.00000000000006" y="389.6666666666666"/>
    </contour>
    <contour>
      <point x="118.66666666666667" y="20.333333333333332" type="curve" smooth="yes"/>
      <point x="152.66666666666669" y="-15.666666666666664"/>
      <point x="178.66666666666669" y="-23.0"/>
      <point x="220.66666666666669" y="-23.0" type="curve" smooth="yes"/>
      <point x="243.6666666666667" y="-23.0"/>
      <point x="267.3333333333333" y="-23.0"/>
      <point x="290.3333333333333" y="-23.0" type="curve"/>
      <point x="388.0" y="30.666666666666664"/>
      <point x="474.33333333333337" y="102.33333333333333"/>
      <point x="528.6666666666666" y="160.99999999999997" type="curve" smooth="yes"/>
      <point x="565.3333333333333" y="200.66666666666669"/>
      <point x="583.0" y="225.66666666666666"/>
      <point x="590.3333333333334" y="253.66666666666666" type="curve" smooth="yes"/>
      <point x="598.3333333333334" y="286.66666666666663"/>
      <point x="576.0" y="302.3333333333333"/>
      <point x="520.6666666666667" y="302.3333333333333" type="curve" smooth="yes"/>
      <point x="487.6666666666667" y="302.3333333333333"/>
      <point x="456.3333333333334" y="297.3333333333333"/>
      <point x="436.0" y="290.6666666666667" type="curve"/>
      <point x="378.66666666666663" y="206.33333333333334"/>
      <point x="320.3333333333333" y="150.99999999999997"/>
      <point x="226.00000000000006" y="84.99999999999999" type="curve"/>
      <point x="276.3333333333333" y="103.33333333333333" type="line"/>
      <point x="216.33333333333331" y="103.33333333333333" type="line"/>
      <point x="258.6666666666667" y="84.99999999999999" type="line"/>
      <point x="196.66666666666666" y="151.0"/>
      <point x="166.33333333333337" y="207.0"/>
      <point x="150.66666666666669" y="290.6666666666667" type="curve"/>
      <point x="133.66666666666669" y="297.3333333333333"/>
      <point x="102.3333333333333" y="302.3333333333333"/>
      <point x="70.66666666666664" y="302.3333333333333" type="curve" smooth="yes"/>
      <point x="34.333333333333336" y="302.3333333333333"/>
      <point x="10.000000000000002" y="293.6666666666667"/>
      <point x="2.3333333333333353" y="267.0" type="curve" smooth="yes"/>
      <point x="-4.33333333333333" y="242.33333333333334"/>
      <point x="-1.0000000000000027" y="214.99999999999997"/>
      <point x="11.666666666666673" y="183.66666666666669" type="curve" smooth="yes"/>
      <point x="33.333333333333336" y="129.66666666666669"/>
      <point x="65.0" y="76.33333333333331"/>
    </contour>
  </outline>
</glyph>
<glyph name="arrowNW" format="2">
  <advance width="600.0"/>
  <unicode hex="2196"/>
  <outline>
    <contour>
      <point x="310.99999999999994" y="449.0" type="curve"/>
      <point x="296.6666666666667" y="443.99999999999994"/>
      <point x="284.3333333333333" y="437.99999999999994"/>
      <point x="271.3333333333333" y="426.33333333333337" type="curve" smooth="yes"/>
      <point x="253.33333333333337" y="410.3333333333334"/>
      <point x="246.66666666666669" y="387.3333333333333"/>
      <point x="256.0" y="359.6666666666667" type="curve" smooth="yes"/>
      <point x="269.99999999999994" y="317.3333333333333"/>
      <point x="294.99999999999994" y="272.6666666666667"/>
      <point x="338.6666666666667" y="193.99999999999997" type="curve" smooth="yes"/>
      <point x="381.33333333333337" y="118.00000000000001"/>
      <point x="392.66666666666663" y="81.00000000000001"/>
      <point x="391.3333333333333" y="36.00000000000001" type="curve"/>
      <point x="427.00000000000006" y="34.66666666666667"/>
      <point x="469.99999999999994" y="41.33333333333334"/>
      <point x="503.6666666666667" y="60.000000000000014" type="curve" smooth="yes"/>
      <point x="554.9999999999999" y="90.0"/>
      <point x="565.0" y="143.66666666666669"/>
      <point x="541.3333333333335" y="188.00000000000003" type="curve" smooth="yes"/>
      <point x="525.0" y="219.99999999999997"/>
      <point x="499.6666666666667" y="254.0"/>
      <point x="466.66666666666663" y="295.3333333333334" type="curve" smooth="yes"/>
      <point x="422.3333333333333" y="352.3333333333333"/>
      <point x="375.3333333333333" y="403.0"/>
    </contour>
    <contour>
      <point x="202.0" y="649.3333333333334" type="curve"/>
      <point x="169.0" y="626.6666666666666" type="line" smooth="yes"/>
      <point x="107.00000000000001" y="580.6666666666665"/>
      <point x="84.33333333333334" y="545.0"/>
      <point x="65.0" y="472.33333333333337" type="curve" smooth="yes"/>
      <point x="40.66666666666667" y="382.00000000000006"/>
      <point x="31.33333333333334" y="308.0"/>
      <point x="36.66666666666667" y="238.33333333333331" type="curve" smooth="yes"/>
      <point x="42.0" y="179.0"/>
      <point x="56.333333333333336" y="164.66666666666669"/>
      <point x="77.33333333333333" y="159.33333333333334" type="curve" smooth="yes"/>
      <point x="108.33333333333334" y="151.33333333333334"/>
      <point x="159.33333333333334" y="168.00000000000003"/>
      <point x="221.0" y="230.66666666666669" type="curve"/>
      <point x="199.33333333333331" y="330.0"/>
      <point x="188.66666666666669" y="428.6666666666667"/>
      <point x="227.0" y="530.0" type="curve"/>
      <point x="195.33333333333337" y="485.00000000000006" type="line"/>
      <point x="248.33333333333337" y="525.6666666666667" type="line"/>
      <point x="196.99999999999997" y="507.3333333333333" type="line"/>
      <point x="293.33333333333326" y="510.6666666666667"/>
      <point x="401.6666666666667" y="481.6666666666667"/>
      <point x="485.3333333333333" y="425.99999999999994" type="curve"/>
      <point x="541.0" y="455.3333333333333"/>
      <point x="572.3333333333333" y="485.3333333333333"/>
      <point x="587.6666666666666" y="518.0" type="curve" smooth="yes"/>
      <point x="600.3333333333335" y="546.0000000000001"/>
      <point x="596.6666666666667" y="580.0"/>
      <point x="534.6666666666666" y="602.3333333333334" type="curve" smooth="yes"/>
      <point x="432.66666666666663" y="638.6666666666666"/>
      <point x="311.6666666666667" y="654.0"/>
    </contour>
  </outline>
</glyph>
<glyph name="squarewhite" format="2">
  <advance width="600.0"/>
  <unicode hex="25A1"/>
  <outline>
    <contour>
      <point x="69.66666666666666" y="600.0" type="line"/>
      <point x="69.66666666666666" y="134.66666666666669" type="line" smooth="yes"/>
      <point x="69.66666666666666" y="110.33333333333334"/>
      <point x="77.33333333333333" y="100.0"/>
      <point x="93.33333333333333" y="100.0" type="curve" smooth="yes"/>
      <point x="569.6666666666667" y="100.0" type="line"/>
      <point x="569.6666666666667" y="565.3333333333334" type="line" smooth="yes"/>
      <point x="569.6666666666667" y="588.3333333333334"/>
      <point x="562.0000000000001" y="600.0"/>
      <point x="546.0000000000001" y="600.0" type="curve" smooth="yes"/>
    </contour>
    <contour>
      <point x="115.66666666666666" y="550.0" type="curve"/>
      <point x="521.3333333333334" y="550.0" type="line"/>
      <point x="519.0000000000001" y="418.3333333333333"/>
      <point x="519.3333333333334" y="273.6666666666667"/>
      <point x="523.6666666666667" y="150.0" type="curve"/>
      <point x="117.99999999999999" y="150.0" type="line"/>
      <point x="120.33333333333333" y="283.0"/>
      <point x="119.99999999999999" y="426.3333333333333"/>
    </contour>
  </outline>
</glyph>
<glyph name="gmtr:diamondwhite" format="2">
  <advance width="600.0"/>
  <unicode hex="25C7"/>
  <outline>
    <contour>
      <point x="609.6666666666667" y="349.6666666666667" type="curve" smooth="yes"/>
      <point x="609.6666666666667" y="375.3333333333333"/>
      <point x="603.3333333333334" y="384.6666666666667"/>
      <point x="587.3333333333334" y="403.0" type="curve" smooth="yes"/>
      <point x="515.6666666666667" y="480.0"/>
      <point x="435.99999999999994" y="560.3333333333334"/>
      <point x="363.3333333333333" y="631.0" type="curve" smooth="yes"/>
      <point x="347.66666666666663" y="645.3333333333334"/>
      <point x="340.3333333333333" y="648.0"/>
      <point x="323.66666666666663" y="648.0" type="curve" smooth="yes"/>
      <point x="308.99999999999994" y="648.0"/>
      <point x="303.99999999999994" y="647.6666666666666"/>
      <point x="293.66666666666663" y="646.3333333333334" type="curve"/>
      <point x="208.00000000000003" y="564.3333333333334"/>
      <point x="112.33333333333333" y="465.0"/>
      <point x="53.666666666666664" y="400.0" type="curve" smooth="yes"/>
      <point x="31.333333333333332" y="374.6666666666667"/>
      <point x="29.666666666666664" y="366.0"/>
      <point x="29.666666666666664" y="347.6666666666667" type="curve" smooth="yes"/>
      <point x="29.666666666666664" y="330.6666666666667"/>
      <point x="34.333333333333336" y="321.0"/>
      <point x="53.0" y="299.3333333333333" type="curve" smooth="yes"/>
      <point x="124.33333333333333" y="219.33333333333334"/>
      <point x="199.00000000000003" y="144.0"/>
      <point x="276.3333333333333" y="69.33333333333334" type="curve" smooth="yes"/>
      <point x="291.3333333333333" y="55.666666666666664"/>
      <point x="299.99999999999994" y="53.0"/>
      <point x="315.3333333333333" y="53.0" type="curve" smooth="yes"/>
      <point x="332.66666666666663" y="53.0"/>
      <point x="342.3333333333333" y="53.333333333333336"/>
      <point x="352.66666666666663" y="54.66666666666667" type="curve"/>
      <point x="413.66666666666663" y="114.66666666666666"/>
      <point x="498.3333333333333" y="201.33333333333331"/>
      <point x="562.6666666666666" y="268.3333333333333" type="curve" smooth="yes"/>
      <point x="598.0000000000001" y="305.3333333333333"/>
      <point x="609.6666666666667" y="325.0"/>
    </contour>
    <contour>
      <point x="68.66666666666666" y="351.0" type="curve"/>
      <point x="130.33333333333334" y="419.3333333333333"/>
      <point x="234.00000000000003" y="528.0"/>
      <point x="339.3333333333333" y="626.6666666666666" type="curve"/>
      <point x="285.66666666666663" y="601.3333333333334" type="line"/>
      <point x="352.99999999999994" y="601.3333333333334" type="line"/>
      <point x="300.99999999999994" y="625.6666666666666" type="line"/>
      <point x="406.3333333333333" y="525.6666666666666"/>
      <point x="504.33333333333337" y="427.0"/>
      <point x="570.0000000000001" y="350.3333333333333" type="curve"/>
      <point x="498.6666666666667" y="268.3333333333333"/>
      <point x="398.3333333333333" y="163.0"/>
      <point x="300.66666666666663" y="72.66666666666667" type="curve"/>
      <point x="354.66666666666663" y="99.0" type="line"/>
      <point x="287.66666666666663" y="99.0" type="line"/>
      <point x="341.66666666666663" y="72.66666666666667" type="line"/>
      <point x="239.66666666666669" y="167.66666666666666"/>
      <point x="137.33333333333334" y="270.6666666666667"/>
    </contour>
  </outline>
</glyph>
<glyph name="heartwhite" format="2">
  <advance width="600.0"/>
  <unicode hex="2661"/>
  <outline>
    <contour>
      <point x="197.66666666666669" y="646.0" type="curve" smooth="yes"/>
      <point x="107.66666666666666" y="646.0"/>
      <point x="50.333333333333336" y="577.0"/>
      <point x="50.333333333333336" y="477.3333333333333" type="curve" smooth="yes"/>
      <point x="50.333333333333336" y="429.0" type="line" smooth="yes"/>
      <point x="50.333333333333336" y="300.6666666666667"/>
      <point x="135.00000000000003" y="187.0"/>
      <point x="274.99999999999994" y="101.66666666666667" type="curve" smooth="yes"/>
      <point x="304.99999999999994" y="83.66666666666667"/>
      <point x="317.3333333333333" y="79.66666666666667"/>
      <point x="334.99999999999994" y="79.66666666666667" type="curve" smooth="yes"/>
      <point x="345.99999999999994" y="79.66666666666667"/>
      <point x="353.99999999999994" y="80.0"/>
      <point x="363.3333333333333" y="81.0" type="curve"/>
      <point x="519.3333333333334" y="171.33333333333331"/>
      <point x="620.3333333333334" y="288.6666666666667"/>
      <point x="620.3333333333334" y="431.0" type="curve" smooth="yes"/>
      <point x="620.3333333333334" y="477.3333333333333" type="line" smooth="yes"/>
      <point x="620.3333333333334" y="584.0"/>
      <point x="557.6666666666667" y="646.0"/>
      <point x="471.66666666666663" y="646.0" type="curve" smooth="yes"/>
      <point x="389.66666666666663" y="646.0"/>
      <point x="339.66666666666663" y="591.6666666666666"/>
      <point x="326.66666666666663" y="498.0" type="curve"/>
      <point x="340.66666666666663" y="498.0" type="line"/>
      <point x="332.66666666666663" y="592.0"/>
      <point x="280.99999999999994" y="646.0"/>
    </contour>
    <contour>
      <point x="353.66666666666663" y="110.33333333333333" type="line"/>
      <point x="205.33333333333334" y="185.33333333333334"/>
      <point x="96.99999999999999" y="296.0"/>
      <point x="96.99999999999999" y="434.0" type="curve" smooth="yes"/>
      <point x="96.99999999999999" y="478.0" type="line" smooth="yes"/>
      <point x="96.99999999999999" y="551.6666666666666"/>
      <point x="136.66666666666669" y="600.3333333333334"/>
      <point x="197.33333333333334" y="600.3333333333334" type="curve" smooth="yes"/>
      <point x="256.3333333333333" y="600.3333333333334"/>
      <point x="284.66666666666663" y="564.3333333333334"/>
      <point x="304.3333333333333" y="494.3333333333333" type="curve" smooth="yes"/>
      <point x="309.3333333333333" y="476.0"/>
      <point x="314.99999999999994" y="469.0"/>
      <point x="328.99999999999994" y="469.0" type="curve" smooth="yes"/>
      <point x="359.3333333333333" y="469.0" type="line"/>
      <point x="376.66666666666663" y="557.6666666666666"/>
      <point x="414.3333333333333" y="600.3333333333334"/>
      <point x="469.66666666666663" y="600.3333333333334" type="curve" smooth="yes"/>
      <point x="533.3333333333334" y="600.3333333333334"/>
      <point x="573.6666666666667" y="556.6666666666666"/>
      <point x="573.6666666666667" y="477.3333333333333" type="curve" smooth="yes"/>
      <point x="573.6666666666667" y="434.6666666666667" type="line" smooth="yes"/>
      <point x="573.6666666666667" y="294.0"/>
      <point x="463.3333333333333" y="187.0"/>
      <point x="317.99999999999994" y="110.33333333333333" type="curve"/>
      <point x="370.3333333333333" y="124.33333333333333" type="line"/>
      <point x="304.3333333333333" y="124.33333333333333" type="line"/>
    </contour>
  </outline>
</glyph>
<glyph name="Lj.italic" format="2">
  <advance width="600.0"/>
  <outline>
    <contour>
      <point x="56.333333333333336" y="0.0" type="curve" smooth="yes"/>
      <point x="278.33333333333337" y="0.0" type="line"/>
      <point x="312.33333333333326" y="86.0"/>
      <point x="320.33333333333337" y="196.66666666666666"/>
      <point x="255.33333333333334" y="196.66666666666666" type="curve" smooth="yes"/>
      <point x="162.66666666666669" y="196.66666666666666" type="line"/>
      <point x="175.99999999999997" y="316.3333333333333"/>
      <point x="259.66666666666663" y="472.3333333333334"/>
      <point x="276.0" y="602.6666666666667" type="curve"/>
      <point x="286.00000000000006" y="682.6666666666666"/>
      <point x="252.33333333333337" y="710.0"/>
      <point x="189.99999999999997" y="710.0" type="curve" smooth="yes"/>
      <point x="157.3333333333333" y="710.0"/>
      <point x="130.00000000000003" y="706.6666666666667"/>
      <point x="102.33333333333337" y="700.0" type="curve"/>
      <point x="105.66666666666669" y="661.0000000000001"/>
      <point x="106.33333333333334" y="622.3333333333334"/>
      <point x="99.00000000000003" y="571.3333333333331" type="curve" smooth="yes"/>
      <point x="81.33333333333334" y="449.33333333333337"/>
      <point x="3.3333333333333357" y="292.0"/>
      <point x="-17.33333333333332" y="156.33333333333331" type="curve" smooth="yes"/>
      <point x="-31.333333333333318" y="64.0"/>
      <point x="-2.3333333333333286" y="0.0"/>
    </contour>
    <contour>
      <point x="239.00000000000003" y="274.33333333333337" type="curve"/>
      <point x="214.3333333333334" y="181.33333333333334"/>
      <point x="201.99999999999997" y="106.66666666666666"/>
      <point x="198.0" y="51.00000000000001" type="curve" smooth="yes"/>
      <point x="194.3333333333334" y="-0.6666666666666643"/>
      <point x="216.66666666666669" y="-26.333333333333336"/>
      <point x="286.33333333333337" y="-26.33333333333333" type="curve"/>
      <point x="330.6666666666666" y="39.99999999999999"/>
      <point x="363.3333333333332" y="110.66666666666667"/>
      <point x="374.66666666666646" y="206.99999999999997" type="curve" smooth="yes"/>
      <point x="381.66666666666663" y="268.0"/>
      <point x="360.0" y="284.33333333333337"/>
      <point x="324.9999999999999" y="284.33333333333337" type="curve" smooth="yes"/>
      <point x="292.3333333333333" y="284.33333333333337"/>
      <point x="261.66666666666663" y="281.0"/>
    </contour>
    <contour>
      <point x="545.0000000000001" y="556.6666666666666" type="curve" smooth="yes"/>
      <point x="492.3333333333334" y="556.6666666666666"/>
      <point x="454.6666666666666" y="552.6666666666666"/>
      <point x="405.33333333333337" y="546.6666666666666" type="curve"/>
      <point x="395.3333333333334" y="526.3333333333333"/>
      <point x="383.0" y="495.00000000000006"/>
      <point x="373.66666666666674" y="457.3333333333333" type="curve" smooth="yes"/>
      <point x="356.33333333333337" y="386.3333333333334"/>
      <point x="363.3333333333333" y="361.66666666666663"/>
      <point x="395.00000000000006" y="361.66666666666663" type="curve" smooth="yes"/>
      <point x="415.33333333333326" y="361.66666666666663"/>
      <point x="425.6666666666667" y="368.3333333333333"/>
      <point x="461.3333333333334" y="385.33333333333337" type="curve"/>
      <point x="466.3333333333333" y="380.6666666666667" type="line"/>
      <point x="429.33333333333326" y="280.3333333333333"/>
      <point x="403.66666666666663" y="170.66666666666666"/>
      <point x="388.3333333333333" y="57.99999999999997" type="curve" smooth="yes"/>
      <point x="382.6666666666667" y="14.0"/>
      <point x="373.0" y="-24.333333333333286"/>
      <point x="364.3333333333334" y="-50.33333333333333" type="curve"/>
      <point x="350.6666666666667" y="-52.666666666666664"/>
      <point x="336.9999999999999" y="-53.33333333333335"/>
      <point x="318.66666666666663" y="-53.33333333333335" type="curve" smooth="yes"/>
      <point x="274.3333333333333" y="-53.33333333333335"/>
      <point x="250.66666666666666" y="-50.333333333333336"/>
      <point x="222.33333333333334" y="-42.33333333333336" type="curve"/>
      <point x="216.33333333333331" y="-42.33333333333336" type="line"/>
      <point x="205.0" y="-66.99999999999997"/>
      <point x="197.66666666666663" y="-86.33333333333333"/>
      <point x="190.66666666666663" y="-114.66666666666669" type="curve" smooth="yes"/>
      <point x="180.00000000000006" y="-155.99999999999994"/>
      <point x="184.66666666666663" y="-185.0"/>
      <point x="199.66666666666663" y="-203.33333333333326" type="curve" smooth="yes"/>
      <point x="214.33333333333331" y="-222.33333333333337"/>
      <point x="241.33333333333331" y="-233.33333333333334"/>
      <point x="285.3333333333333" y="-233.33333333333337" type="curve" smooth="yes"/>
      <point x="405.3333333333333" y="-233.33333333333334"/>
      <point x="513.6666666666667" y="-118.33333333333334"/>
      <point x="535.6666666666667" y="26.666666666666643" type="curve" smooth="yes"/>
      <point x="563.0" y="204.66666666666669"/>
      <point x="593.3333333333333" y="318.33333333333337"/>
      <point x="648.0" y="475.0" type="curve" smooth="yes"/>
      <point x="667.9999999999999" y="533.6666666666667"/>
      <point x="629.0" y="556.6666666666666"/>
    </contour>
    <contour>
      <point x="489.66666666666663" y="781.0" type="curve"/>
      <point x="478.6666666666666" y="739.0" type="line" smooth="yes"/>
      <point x="457.6666666666666" y="659.9999999999999"/>
      <point x="511.00000000000006" y="622.9999999999999"/>
      <point x="591.6666666666665" y="622.9999999999999" type="curve" smooth="yes"/>
      <point x="625.6666666666669" y="622.9999999999999"/>
      <point x="667.6666666666667" y="629.0000000000001"/>
      <point x="704.3333333333335" y="640.6666666666666" type="curve"/>
      <point x="715.0000000000001" y="683.3333333333334" type="line" smooth="yes"/>
      <point x="733.3333333333335" y="755.6666666666666"/>
      <point x="683.3333333333334" y="793.3333333333333"/>
      <point x="605.0" y="793.3333333333333" type="curve" smooth="yes"/>
      <point x="570.0000000000001" y="793.3333333333333"/>
      <point x="525.3333333333333" y="788.3333333333333"/>
    </contour>
  </outline>
</glyph>
<glyph name="Nj.italic" format="2">
  <advance width="600.0"/>
  <outline>
    <contour>
      <point x="100.66666666666666" y="-6.661338147750939e-16" type="curve"/>
      <point x="102.33333333333336" y="20.999999999999993"/>
      <point x="104.66666666666666" y="44.000000000000014"/>
      <point x="108.00000000000001" y="66.33333333333337" type="curve"/>
      <point x="124.99999999999997" y="159.66666666666663"/>
      <point x="137.33333333333331" y="260.33333333333337"/>
      <point x="147.99999999999994" y="409.33333333333337" type="curve"/>
      <point x="130.66666666666669" y="394.00000000000006" type="line"/>
      <point x="168.3333333333334" y="394.00000000000006" type="line"/>
      <point x="151.66666666666669" y="408.33333333333326" type="line"/>
      <point x="147.33333333333331" y="216.66666666666669"/>
      <point x="157.99999999999997" y="90.66666666666666"/>
      <point x="182.33333333333334" y="34.66666666666667" type="curve" smooth="yes"/>
      <point x="195.00000000000006" y="5.333333333333335"/>
      <point x="212.33333333333331" y="-7.333333333333334"/>
      <point x="254.33333333333334" y="-7.333333333333334" type="curve" smooth="yes"/>
      <point x="268.99999999999994" y="-7.333333333333334"/>
      <point x="298.33333333333326" y="-4.666666666666668"/>
      <point x="314.33333333333326" y="0.0" type="curve"/>
      <point x="312.6666666666667" y="28.000000000000004"/>
      <point x="313.66666666666663" y="59.666666666666664"/>
      <point x="319.6666666666667" y="103.33333333333336" type="curve"/>
      <point x="341.0" y="258.66666666666674"/>
      <point x="411.66666666666663" y="430.6666666666667"/>
      <point x="440.66666666666663" y="623.3333333333334" type="curve"/>
      <point x="449.0" y="680.0000000000002"/>
      <point x="427.33333333333337" y="709.3333333333334"/>
      <point x="376.0" y="709.3333333333334" type="curve"/>
      <point x="346.33333333333337" y="709.3333333333334"/>
      <point x="319.0" y="705.6666666666666"/>
      <point x="298.99999999999994" y="700.0" type="curve"/>
      <point x="298.0" y="673.0"/>
      <point x="290.6666666666667" y="632.3333333333333"/>
      <point x="284.0" y="592.6666666666667" type="curve"/>
      <point x="262.33333333333326" y="487.3333333333334"/>
      <point x="245.33333333333334" y="386.0"/>
      <point x="239.66666666666669" y="261.33333333333337" type="curve"/>
      <point x="259.0" y="274.33333333333337" type="line"/>
      <point x="221.66666666666669" y="274.33333333333337" type="line"/>
      <point x="238.66666666666669" y="255.66666666666669" type="line"/>
      <point x="223.99999999999994" y="361.0"/>
      <point x="232.6666666666667" y="462.6666666666667"/>
      <point x="246.33333333333334" y="614.3333333333333" type="curve" smooth="yes"/>
      <point x="253.0" y="685.6666666666665"/>
      <point x="232.99999999999997" y="709.3333333333334"/>
      <point x="175.3333333333334" y="709.3333333333334" type="curve" smooth="yes"/>
      <point x="143.3333333333333" y="709.3333333333334"/>
      <point x="122.33333333333331" y="706.6666666666667"/>
      <point x="91.0" y="700.0" type="curve"/>
      <point x="91.0" y="663.3333333333334"/>
      <point x="86.99999999999999" y="621.3333333333333"/>
      <point x="77.0" y="570.0000000000001" type="curve"/>
      <point x="47.333333333333336" y="414.0"/>
      <point x="-12.333333333333332" y="279.0"/>
      <point x="-33.0" y="108.0" type="curve"/>
      <point x="-43.66666666666666" y="20.33333333333333"/>
      <point x="-15.333333333333336" y="-6.333333333333334"/>
      <point x="35.333333333333336" y="-6.333333333333334" type="curve"/>
      <point x="55.999999999999986" y="-6.333333333333334"/>
      <point x="85.0" y="-3.9999999999999996"/>
    </contour>
    <contour>
      <point x="551.6666666666669" y="556.6666666666666" type="curve" smooth="yes"/>
      <point x="518.9999999999998" y="556.6666666666666"/>
      <point x="486.0" y="552.6666666666665"/>
      <point x="447.33333333333337" y="546.6666666666666" type="curve"/>
      <point x="436.0000000000001" y="524.3333333333333"/>
      <point x="423.66666666666663" y="495.00000000000006"/>
      <point x="414.3333333333333" y="457.3333333333333" type="curve" smooth="yes"/>
      <point x="396.99999999999994" y="386.3333333333334"/>
      <point x="407.00000000000017" y="361.66666666666663"/>
      <point x="426.0000000000001" y="361.66666666666663" type="curve" smooth="yes"/>
      <point x="438.66666666666663" y="361.66666666666663"/>
      <point x="450.0" y="368.6666666666667"/>
      <point x="468.0000000000002" y="385.3333333333333" type="curve"/>
      <point x="473.0000000000001" y="380.66666666666674" type="line"/>
      <point x="436.0" y="280.33333333333326"/>
      <point x="403.6666666666667" y="170.66666666666666"/>
      <point x="388.33333333333337" y="57.999999999999986" type="curve" smooth="yes"/>
      <point x="382.6666666666667" y="14.0"/>
      <point x="373.0000000000001" y="-24.333333333333357"/>
      <point x="364.3333333333334" y="-50.33333333333333" type="curve"/>
      <point x="350.66666666666674" y="-52.666666666666686"/>
      <point x="336.9999999999999" y="-53.33333333333334"/>
      <point x="318.66666666666663" y="-53.33333333333334" type="curve" smooth="yes"/>
      <point x="274.3333333333333" y="-53.33333333333334"/>
      <point x="250.66666666666669" y="-50.333333333333336"/>
      <point x="222.33333333333337" y="-42.33333333333336" type="curve"/>
      <point x="216.33333333333334" y="-42.33333333333336" type="line"/>
      <point x="205.00000000000003" y="-66.99999999999999"/>
      <point x="197.66666666666669" y="-86.33333333333334"/>
      <point x="190.66666666666666" y="-114.66666666666671" type="curve" smooth="yes"/>
      <point x="180.00000000000003" y="-155.99999999999994"/>
      <point x="184.6666666666666" y="-184.99999999999994"/>
      <point x="199.66666666666666" y="-203.3333333333332" type="curve" smooth="yes"/>
      <point x="214.33333333333334" y="-222.33333333333331"/>
      <point x="241.33333333333331" y="-233.33333333333334"/>
      <point x="289.00000000000006" y="-233.33333333333337" type="curve" smooth="yes"/>
      <point x="405.3333333333335" y="-233.33333333333334"/>
      <point x="513.6666666666667" y="-118.33333333333339"/>
      <point x="535.6666666666666" y="26.66666666666668" type="curve" smooth="yes"/>
      <point x="563.0" y="204.6666666666667"/>
      <point x="591.9999999999999" y="319.0"/>
      <point x="648.0000000000001" y="475.0" type="curve" smooth="yes"/>
      <point x="663.3333333333333" y="517.6666666666667"/>
      <point x="628.3333333333333" y="556.6666666666666"/>
    </contour>
    <contour>
      <point x="489.6666666666665" y="781.0" type="curve"/>
      <point x="478.66666666666663" y="739.0" type="line" smooth="yes"/>
      <point x="457.6666666666668" y="659.9999999999999"/>
      <point x="511.00000000000006" y="623.0"/>
      <point x="591.6666666666664" y="623.0" type="curve" smooth="yes"/>
      <point x="625.6666666666665" y="623.0"/>
      <point x="667.6666666666665" y="629.0"/>
      <point x="704.3333333333331" y="640.6666666666666" type="curve"/>
      <point x="714.9999999999998" y="683.3333333333334" type="line" smooth="yes"/>
      <point x="733.3333333333331" y="755.6666666666666"/>
      <point x="683.3333333333329" y="793.3333333333333"/>
      <point x="604.9999999999997" y="793.3333333333333" type="curve" smooth="yes"/>
      <point x="569.9999999999997" y="793.3333333333333"/>
      <point x="525.3333333333331" y="788.3333333333333"/>
    </contour>
  </outline>
</glyph>
<glyph name="dotlessi.mono" format="2">
  <advance width="600.0"/>
  <anchor x="376.33333333333337" y="545.6666666666666" name="top"/>
  <anchor x="233.33333333333337" y="-1.0" name="bottom"/>
  <anchor x="504.3333333333334" y="2.220446049250313e-16" name="ogonek"/>
  <anchor x="388.3333333333333" y="584.0" name="hook"/>
  <outline>
    <contour>
      <point x="202.99999999999997" y="170.99999999999997" type="line"/>
      <point x="364.66666666666663" y="141.0" type="line"/>
      <point x="381.33333333333337" y="278.3333333333333"/>
      <point x="430.33333333333337" y="346.0"/>
      <point x="451.0" y="448.66666666666663" type="curve" smooth="yes"/>
      <point x="462.6666666666667" y="505.33333333333326"/>
      <point x="413.33333333333326" y="556.6666666666666"/>
      <point x="315.33333333333337" y="556.6666666666666" type="curve"/>
      <point x="236.33333333333334" y="556.6666666666666"/>
      <point x="164.33333333333334" y="551.9999999999999"/>
      <point x="108.00000000000001" y="543.3333333333333" type="curve"/>
      <point x="92.66666666666664" y="517.6666666666667"/>
      <point x="79.66666666666664" y="487.3333333333333"/>
      <point x="72.66666666666666" y="459.33333333333337" type="curve" smooth="yes"/>
      <point x="54.0" y="383.66666666666674"/>
      <point x="63.33333333333334" y="334.66666666666674"/>
      <point x="105.33333333333337" y="334.66666666666674" type="curve" smooth="yes"/>
      <point x="138.3333333333333" y="334.66666666666674"/>
      <point x="173.00000000000006" y="345.00000000000006"/>
      <point x="230.33333333333331" y="375.6666666666667" type="curve" smooth="yes"/>
      <point x="234.6666666666668" y="372.0000000000001" type="line"/>
      <point x="224.33333333333326" y="341.0"/>
      <point x="210.33333333333331" y="308.66666666666674"/>
      <point x="202.0" y="268.3333333333333" type="curve" smooth="yes"/>
      <point x="195.33333333333331" y="235.66666666666663"/>
      <point x="200.00000000000003" y="210.00000000000003"/>
      <point x="214.66666666666666" y="190.99999999999997" type="curve" smooth="yes"/>
    </contour>
    <contour>
      <point x="11.000000000000004" y="185.66666666666663" type="line"/>
      <point x="1.333333333333341" y="164.33333333333331"/>
      <point x="-5.666666666666661" y="144.66666666666666"/>
      <point x="-11.333333333333329" y="124.66666666666667" type="curve" smooth="yes"/>
      <point x="-30.33333333333333" y="47.33333333333333"/>
      <point x="8.333333333333345" y="0.0"/>
      <point x="90.00000000000001" y="0.0" type="curve" smooth="yes"/>
      <point x="500.6666666666667" y="0.0" type="line"/>
      <point x="510.3333333333334" y="17.333333333333336"/>
      <point x="519.3333333333334" y="38.33333333333332"/>
      <point x="524.6666666666667" y="61.66666666666666" type="curve" smooth="yes"/>
      <point x="543.6666666666667" y="143.66666666666669"/>
      <point x="483.6666666666666" y="185.66666666666663"/>
      <point x="329.99999999999994" y="185.66666666666663" type="curve" smooth="yes"/>
    </contour>
  </outline>
</glyph>
<glyph name="dzcaron.italic" format="2">
  <advance width="600.0"/>
  <outline>
    <contour>
      <point x="176.33333333333331" y="558.6666666666667" type="curve" smooth="yes"/>
      <point x="110.99999999999997" y="558.6666666666667"/>
      <point x="54.66666666666668" y="480.99999999999994"/>
      <point x="-11.66666666666666" y="215.33333333333331" type="curve" smooth="yes"/>
      <point x="-15.333333333333332" y="200.66666666666669" type="line" smooth="yes"/>
      <point x="-45.33333333333332" y="80.66666666666669"/>
      <point x="-17.66666666666664" y="-10.666666666666666"/>
      <point x="32.66666666666666" y="-10.666666666666666" type="curve" smooth="yes"/>
      <point x="75.33333333333337" y="-10.666666666666666"/>
      <point x="113.33333333333331" y="33.33333333333333"/>
      <point x="146.66666666666663" y="114.0" type="curve"/>
      <point x="159.99999999999997" y="114.0" type="line"/>
      <point x="203.99999999999997" y="291.33333333333337" type="line"/>
      <point x="168.33333333333334" y="195.0"/>
      <point x="143.33333333333337" y="177.66666666666666"/>
      <point x="130.66666666666666" y="177.66666666666666" type="curve" smooth="yes"/>
      <point x="128.3333333333333" y="177.66666666666666"/>
      <point x="127.0" y="177.6666666666666"/>
      <point x="124.99999999999999" y="177.66666666666669" type="curve" smooth="yes"/>
      <point x="127.99999999999996" y="196.66666666666663"/>
      <point x="133.99999999999997" y="220.99999999999997"/>
      <point x="140.99999999999997" y="250.6666666666666" type="curve" smooth="yes"/>
      <point x="143.33333333333334" y="259.6666666666666" type="line" smooth="yes"/>
      <point x="171.66666666666666" y="378.0000000000001"/>
      <point x="184.33333333333334" y="394.0"/>
      <point x="203.00000000000003" y="394.0" type="curve" smooth="yes"/>
      <point x="217.99999999999994" y="394.0"/>
      <point x="228.0" y="389.0"/>
      <point x="235.66666666666663" y="380.0" type="curve"/>
      <point x="260.00000000000006" y="477.99999999999994" type="line"/>
      <point x="244.66666666666669" y="478.0" type="line"/>
      <point x="234.66666666666663" y="529.6666666666666"/>
      <point x="213.3333333333333" y="558.6666666666667"/>
    </contour>
    <contour>
      <point x="350.0" y="758.6666666666667" type="curve"/>
      <point x="323.33333333333337" y="758.6666666666667"/>
      <point x="302.6666666666668" y="754.3333333333333"/>
      <point x="288.6666666666666" y="750.0" type="curve"/>
      <point x="294.9999999999999" y="718.0"/>
      <point x="293.66666666666663" y="687.0000000000002"/>
      <point x="289.33333333333326" y="647.6666666666667" type="curve"/>
      <point x="271.99999999999994" y="494.6666666666667"/>
      <point x="185.99999999999994" y="311.3333333333333"/>
      <point x="158.0" y="137.33333333333331" type="curve"/>
      <point x="142.66666666666669" y="39.0"/>
      <point x="165.3333333333333" y="-7.666666666666666"/>
      <point x="221.99999999999997" y="-7.666666666666666" type="curve" smooth="yes"/>
      <point x="245.66666666666669" y="-7.666666666666666"/>
      <point x="270.0" y="-5.0"/>
      <point x="286.66666666666674" y="0.3333333333333335" type="curve"/>
      <point x="280.3333333333333" y="33.0"/>
      <point x="281.33333333333337" y="71.33333333333333"/>
      <point x="289.3333333333333" y="110.66666666666667" type="curve" smooth="yes"/>
      <point x="321.66666666666674" y="279.0"/>
      <point x="396.66666666666674" y="469.6666666666667"/>
      <point x="420.33333333333337" y="612.3333333333334" type="curve"/>
      <point x="438.33333333333337" y="718.3333333333334"/>
      <point x="410.66666666666663" y="758.6666666666667"/>
    </contour>
    <contour>
      <point x="424.6666666666667" y="546.6666666666666" type="line"/>
      <point x="417.33333333333326" y="528.0"/>
      <point x="410.0" y="507.66666666666663"/>
      <point x="403.3333333333334" y="482.6666666666667" type="curve" smooth="yes"/>
      <point x="378.33333333333337" y="382.6666666666667"/>
      <point x="387.6666666666668" y="351.3333333333333"/>
      <point x="425.0" y="351.3333333333333" type="curve" smooth="yes"/>
      <point x="487.66666666666674" y="351.3333333333333" type="line"/>
      <point x="486.99999999999994" y="345.0" type="line"/>
      <point x="470.33333333333337" y="330.6666666666667"/>
      <point x="455.0" y="313.99999999999994"/>
      <point x="443.0" y="297.66666666666663" type="curve" smooth="yes"/>
      <point x="402.3333333333333" y="243.66666666666677"/>
      <point x="365.99999999999994" y="200.00000000000003"/>
      <point x="318.3333333333334" y="153.33333333333331" type="curve"/>
      <point x="313.00000000000006" y="132.33333333333331" type="line" smooth="yes"/>
      <point x="286.66666666666674" y="26.666666666666668"/>
      <point x="299.3333333333333" y="0.0"/>
      <point x="345.33333333333326" y="0.0" type="curve" smooth="yes"/>
      <point x="524.6666666666666" y="0.0" type="line"/>
      <point x="533.9999999999998" y="22.33333333333334"/>
      <point x="543.9999999999999" y="52.666666666666664"/>
      <point x="552.0000000000001" y="82.99999999999997" type="curve" smooth="yes"/>
      <point x="573.3333333333333" y="169.66666666666663"/>
      <point x="567.3333333333331" y="195.3333333333333"/>
      <point x="526.3333333333333" y="195.3333333333333" type="curve"/>
      <point x="445.66666666666663" y="195.3333333333333" type="line"/>
      <point x="446.33333333333337" y="201.66666666666663" type="line"/>
      <point x="464.3333333333335" y="214.33333333333331"/>
      <point x="480.33333333333337" y="226.66666666666669"/>
      <point x="497.0" y="242.00000000000006" type="curve" smooth="yes"/>
      <point x="572.3333333333331" y="310.6666666666667"/>
      <point x="622.9999999999999" y="376.00000000000006"/>
      <point x="632.3333333333334" y="411.00000000000006" type="curve"/>
      <point x="634.3333333333334" y="419.0" type="line" smooth="yes"/>
      <point x="651.6666666666667" y="489.99999999999994"/>
      <point x="642.3333333333335" y="546.6666666666666"/>
      <point x="593.6666666666666" y="546.6666666666666" type="curve"/>
    </contour>
    <contour>
      <point x="594.9999999999998" y="622.3333333333334" type="curve"/>
      <point x="634.6666666666666" y="651.3333333333335"/>
      <point x="678.6666666666667" y="695.6666666666667"/>
      <point x="709.6666666666665" y="739.0" type="curve" smooth="yes"/>
      <point x="727.3333333333331" y="763.3333333333335"/>
      <point x="743.0" y="788.3333333333333"/>
      <point x="748.3333333333334" y="809.3333333333333" type="curve" smooth="yes"/>
      <point x="754.6666666666667" y="834.3333333333334"/>
      <point x="719.9999999999999" y="845.0"/>
      <point x="667.3333333333334" y="845.0" type="curve" smooth="yes"/>
      <point x="651.3333333333335" y="845.0" type="line"/>
      <point x="633.6666666666667" y="812.3333333333334"/>
      <point x="606.0" y="768.0"/>
      <point x="573.6666666666666" y="731.3333333333333" type="curve"/>
      <point x="607.0" y="749.3333333333333" type="line"/>
      <point x="564.0" y="749.3333333333333" type="line"/>
      <point x="586.6666666666669" y="733.3333333333334" type="line"/>
      <point x="573.9999999999998" y="759.6666666666666"/>
      <point x="569.3333333333334" y="783.3333333333333"/>
      <point x="565.9999999999999" y="806.9999999999999" type="curve" smooth="yes"/>
      <point x="561.0" y="836.6666666666667"/>
      <point x="551.0" y="845.0"/>
      <point x="523.9999999999999" y="845.0" type="curve" smooth="yes"/>
      <point x="499.99999999999994" y="845.0"/>
      <point x="474.6666666666665" y="837.0"/>
      <point x="453.66666666666663" y="823.0" type="curve"/>
      <point x="454.3333333333333" y="758.3333333333333"/>
      <point x="471.66666666666663" y="700.0"/>
      <point x="494.6666666666667" y="662.6666666666666" type="curve" smooth="yes"/>
      <point x="515.3333333333335" y="629.3333333333334"/>
      <point x="527.3333333333335" y="622.3333333333334"/>
      <point x="555.3333333333334" y="622.3333333333334" type="curve" smooth="yes"/>
      <point x="570.6666666666666" y="622.3333333333334"/>
      <point x="585.3333333333334" y="622.3333333333334"/>
    </contour>
  </outline>
</glyph>
<glyph name="equal_greater.code" format="2">
  <advance width="1200.0"/>
  <outline>
    <contour>
      <point x="508.0" y="330.0" type="curve" smooth="yes"/>
      <point x="184.33333333333334" y="330.0" type="line"/>
      <point x="170.33333333333334" y="298.6666666666667"/>
      <point x="158.66666666666666" y="267.6666666666667"/>
      <point x="152.66666666666669" y="243.0" type="curve" smooth="yes"/>
      <point x="133.66666666666669" y="167.33333333333337"/>
      <point x="153.3333333333334" y="150.33333333333337"/>
      <point x="238.3333333333334" y="150.33333333333337" type="curve"/>
      <point x="275.33333333333337" y="150.33333333333337" type="line" smooth="yes"/>
      <point x="401.66666666666663" y="150.33333333333337"/>
      <point x="519.6666666666667" y="171.66666666666663"/>
      <point x="693.0" y="225.33333333333331" type="curve"/>
      <point x="678.6666666666667" y="168.0" type="line"/>
      <point x="899.0000000000001" y="328.3333333333333" type="line"/>
      <point x="800.6666666666666" y="329.3333333333333"/>
      <point x="640.0" y="330.0"/>
    </contour>
    <contour>
      <point x="1033.0" y="284.0" type="curve"/>
      <point x="1039.6666666666667" y="299.0"/>
      <point x="1053.6666666666667" y="339.66666666666663"/>
      <point x="1060.0" y="362.3333333333333" type="curve" smooth="yes"/>
      <point x="1069.6666666666667" y="402.99999999999994"/>
      <point x="1063.0000000000002" y="431.6666666666667"/>
      <point x="1026.3333333333335" y="488.66666666666663" type="curve" smooth="yes"/>
      <point x="982.6666666666665" y="556.3333333333333"/>
      <point x="912.3333333333334" y="634.0"/>
      <point x="844.0000000000003" y="685.6666666666667" type="curve" smooth="yes"/>
      <point x="797.6666666666669" y="720.3333333333333"/>
      <point x="768.6666666666665" y="733.0"/>
      <point x="734.6666666666666" y="733.0" type="curve" smooth="yes"/>
      <point x="701.6666666666667" y="733.0"/>
      <point x="683.9999999999999" y="711.0"/>
      <point x="671.6666666666666" y="660.6666666666666" type="curve" smooth="yes"/>
      <point x="664.0" y="628.3333333333334"/>
      <point x="662.3333333333334" y="600.6666666666666"/>
      <point x="663.0" y="577.3333333333334" type="curve"/>
      <point x="745.6666666666667" y="525.3333333333334"/>
      <point x="862.3333333333334" y="418.0"/>
      <point x="911.3333333333335" y="345.6666666666667" type="curve"/>
      <point x="901.6666666666666" y="395.33333333333337" type="line"/>
      <point x="884.6666666666665" y="328.6666666666667" type="line"/>
      <point x="918.0" y="381.00000000000006" type="line"/>
      <point x="827.6666666666666" y="298.33333333333337"/>
      <point x="669.6666666666666" y="191.33333333333334"/>
      <point x="546.3333333333334" y="137.66666666666669" type="curve"/>
      <point x="536.0" y="114.66666666666667"/>
      <point x="531.0000000000001" y="99.0"/>
      <point x="524.0" y="70.33333333333333" type="curve" smooth="yes"/>
      <point x="507.3333333333334" y="6.000000000000014"/>
      <point x="523.6666666666666" y="-27.333333333333314"/>
      <point x="560.3333333333334" y="-27.333333333333314" type="curve" smooth="yes"/>
      <point x="592.3333333333334" y="-27.333333333333314"/>
      <point x="625.6666666666667" y="-17.99999999999998"/>
      <point x="679.6666666666669" y="14.000000000000005" type="curve" smooth="yes"/>
      <point x="807.9999999999999" y="88.0"/>
      <point x="952.6666666666667" y="193.66666666666669"/>
    </contour>
    <contour>
      <point x="911.666666666667" y="383.66666666666663" type="curve"/>
      <point x="773.0" y="544.9999999999999" type="line"/>
      <point x="759.6666666666666" y="492.66666666666663" type="line"/>
      <point x="617.6666666666666" y="545.6666666666667"/>
      <point x="486.33333333333354" y="560.0"/>
      <point x="343.3333333333335" y="560.0" type="curve" smooth="yes"/>
      <point x="234.33333333333334" y="560.0" type="line"/>
      <point x="230.0" y="549.0"/>
      <point x="225.66666666666666" y="533.6666666666666"/>
      <point x="222.33333333333334" y="522.3333333333334" type="curve" smooth="yes"/>
      <point x="192.33333333333334" y="401.0"/>
      <point x="211.0" y="380.3333333333333"/>
      <point x="307.0" y="380.3333333333333" type="curve"/>
      <point x="526.3333333333333" y="380.3333333333333" type="line" smooth="yes"/>
      <point x="650.9999999999999" y="380.3333333333333"/>
      <point x="816.6666666666669" y="381.0"/>
    </contour>
  </outline>
</glyph>
<glyph name="f_f.italic" format="2">
  <advance width="1200.0"/>
  <outline>
    <contour>
      <point x="347.66666666666663" y="95.99999999999999" type="curve"/>
      <point x="393.33333333333337" y="222.66666666666666"/>
      <point x="398.33333333333326" y="340.66666666666663"/>
      <point x="437.66666666666674" y="500.00000000000006" type="curve" smooth="yes"/>
      <point x="438.0000000000001" y="533.0000000000001"/>
      <point x="440.66666666666663" y="559.0"/>
      <point x="448.6666666666665" y="584.3333333333333" type="curve" smooth="yes"/>
      <point x="468.66666666666663" y="588.3333333333336"/>
      <point x="505.0" y="589.6666666666666"/>
      <point x="537.6666666666666" y="589.6666666666666" type="curve" smooth="yes"/>
      <point x="587.3333333333335" y="589.6666666666666"/>
      <point x="641.6666666666667" y="582.3333333333333"/>
      <point x="692.6666666666666" y="566.0000000000001" type="curve"/>
      <point x="698.6666666666667" y="566.0000000000001" type="line"/>
      <point x="712.0000000000001" y="591.0000000000001"/>
      <point x="720.3333333333337" y="614.0000000000002"/>
      <point x="727.6666666666669" y="643.3333333333334" type="curve"/>
      <point x="739.0000000000002" y="690.9999999999999"/>
      <point x="739.3333333333336" y="721.3333333333333"/>
      <point x="721.6666666666667" y="738.9999999999999" type="curve" smooth="yes"/>
      <point x="705.3333333333333" y="755.9999999999999"/>
      <point x="669.3333333333334" y="770.0"/>
      <point x="591.3333333333335" y="770.0" type="curve" smooth="yes"/>
      <point x="411.0" y="770.0"/>
      <point x="290.66666666666663" y="693.0"/>
      <point x="255.66666666666666" y="559.0000000000001" type="curve" smooth="yes"/>
      <point x="215.66666666666666" y="404.0"/>
      <point x="200.3333333333333" y="284.3333333333333"/>
      <point x="145.00000000000003" y="128.66666666666669" type="curve"/>
      <point x="124.00000000000003" y="69.33333333333334"/>
      <point x="100.66666666666666" y="31.33333333333333"/>
      <point x="76.00000000000003" y="0.0" type="curve"/>
      <point x="93.66666666666671" y="-10.666666666666666"/>
      <point x="121.33333333333334" y="-19.0"/>
      <point x="169.66666666666666" y="-19.0" type="curve"/>
      <point x="268.0" y="-19.0"/>
      <point x="318.66666666666663" y="16.0"/>
    </contour>
    <contour>
      <point x="1164.6666666666665" y="330.00000000000006" type="line"/>
      <point x="1175.333333333333" y="348.6666666666667"/>
      <point x="1184.6666666666667" y="373.0"/>
      <point x="1190.3333333333333" y="395.33333333333337" type="curve" smooth="yes"/>
      <point x="1209.6666666666665" y="473.33333333333326"/>
      <point x="1181.333333333333" y="500.0"/>
      <point x="1118.0" y="500.0" type="curve"/>
      <point x="84.66666666666667" y="500.0" type="line"/>
      <point x="78.66666666666669" y="489.33333333333337"/>
      <point x="75.00000000000001" y="479.0"/>
      <point x="68.66666666666666" y="456.6666666666667" type="curve" smooth="yes"/>
      <point x="45.66666666666667" y="374.0"/>
      <point x="96.66666666666667" y="330.00000000000006"/>
      <point x="199.0" y="330.00000000000006" type="curve" smooth="yes"/>
    </contour>
    <contour>
      <point x="864.6666666666665" y="95.99999999999999" type="curve"/>
      <point x="910.3333333333331" y="222.66666666666666"/>
      <point x="915.3333333333331" y="340.66666666666663"/>
      <point x="954.6666666666665" y="500.00000000000006" type="curve" smooth="yes"/>
      <point x="955.0" y="533.0000000000001"/>
      <point x="957.6666666666667" y="559.0"/>
      <point x="965.666666666667" y="584.3333333333334" type="curve" smooth="yes"/>
      <point x="987.3333333333334" y="588.3333333333335"/>
      <point x="1030.6666666666663" y="589.6666666666666"/>
      <point x="1068.9999999999998" y="589.6666666666666" type="curve" smooth="yes"/>
      <point x="1120.3333333333335" y="589.6666666666666"/>
      <point x="1185.0" y="580.3333333333331"/>
      <point x="1237.666666666667" y="566.0000000000001" type="curve"/>
      <point x="1243.6666666666667" y="566.0000000000001" type="line"/>
      <point x="1257.0" y="591.0000000000001"/>
      <point x="1265.6666666666665" y="614.0000000000002"/>
      <point x="1272.666666666667" y="643.3333333333334" type="curve"/>
      <point x="1283.6666666666667" y="690.0"/>
      <point x="1283.3333333333333" y="721.6666666666667"/>
      <point x="1265.0000000000002" y="738.6666666666666" type="curve" smooth="yes"/>
      <point x="1246.3333333333333" y="756.3333333333333"/>
      <point x="1204.6666666666663" y="770.0"/>
      <point x="1124.3333333333335" y="770.0" type="curve" smooth="yes"/>
      <point x="916.6666666666669" y="770.0"/>
      <point x="804.3333333333331" y="669.6666666666666"/>
      <point x="772.6666666666665" y="559.0000000000001" type="curve" smooth="yes"/>
      <point x="728.6666666666666" y="405.3333333333333"/>
      <point x="717.3333333333333" y="284.3333333333333"/>
      <point x="661.9999999999999" y="128.66666666666669" type="curve"/>
      <point x="640.9999999999999" y="69.33333333333334"/>
      <point x="617.6666666666665" y="31.33333333333333"/>
      <point x="593.0" y="0.0" type="curve"/>
      <point x="610.6666666666665" y="-10.666666666666666"/>
      <point x="638.3333333333331" y="-19.0"/>
      <point x="686.6666666666665" y="-19.0" type="curve"/>
      <point x="784.9999999999998" y="-19.0"/>
      <point x="835.6666666666665" y="16.0"/>
    </contour>
  </outline>
</glyph>
<glyph name="f_f_i.italic" format="2">
  <advance width="1200.0"/>
  <outline>
    <contour>
      <point x="297.66666666666663" y="95.99999999999999" type="curve"/>
      <point x="343.3333333333333" y="222.66666666666666"/>
      <point x="348.3333333333333" y="340.66666666666663"/>
      <point x="387.66666666666663" y="499.99999999999994" type="curve" smooth="yes"/>
      <point x="387.99999999999994" y="533.0000000000001"/>
      <point x="390.66666666666663" y="559.0"/>
      <point x="398.66666666666674" y="584.3333333333334" type="curve" smooth="yes"/>
      <point x="411.33333333333326" y="587.6666666666667"/>
      <point x="428.0" y="589.6666666666666"/>
      <point x="444.9999999999999" y="589.6666666666666" type="curve" smooth="yes"/>
      <point x="485.99999999999994" y="589.6666666666666"/>
      <point x="529.6666666666667" y="580.3333333333335"/>
      <point x="560.6666666666665" y="566.0" type="curve"/>
      <point x="566.6666666666665" y="566.0" type="line"/>
      <point x="580.0" y="591.0"/>
      <point x="588.3333333333333" y="614.0"/>
      <point x="595.6666666666666" y="643.3333333333334" type="curve"/>
      <point x="607.0000000000001" y="691.0"/>
      <point x="606.0" y="718.6666666666667"/>
      <point x="591.6666666666666" y="739.0000000000001" type="curve" smooth="yes"/>
      <point x="577.9999999999998" y="758.0"/>
      <point x="550.9999999999999" y="770.0"/>
      <point x="490.66666666666663" y="770.0" type="curve" smooth="yes"/>
      <point x="350.6666666666668" y="770.0"/>
      <point x="237.33333333333334" y="669.6666666666665"/>
      <point x="205.66666666666666" y="559.0" type="curve" smooth="yes"/>
      <point x="161.66666666666666" y="405.3333333333333"/>
      <point x="150.33333333333331" y="284.3333333333333"/>
      <point x="95.00000000000003" y="128.66666666666669" type="curve"/>
      <point x="74.00000000000001" y="69.33333333333334"/>
      <point x="50.666666666666664" y="31.33333333333333"/>
      <point x="26.000000000000004" y="0.0" type="curve"/>
      <point x="43.66666666666667" y="-10.666666666666666"/>
      <point x="71.33333333333336" y="-19.0"/>
      <point x="119.66666666666667" y="-19.0" type="curve"/>
      <point x="217.99999999999997" y="-19.0"/>
      <point x="268.66666666666663" y="16.0"/>
    </contour>
    <contour>
      <point x="699.6666666666666" y="95.99999999999999" type="curve"/>
      <point x="745.3333333333334" y="222.66666666666666"/>
      <point x="750.3333333333334" y="340.66666666666663"/>
      <point x="789.6666666666667" y="499.99999999999994" type="curve" smooth="yes"/>
      <point x="790.0" y="533.0000000000001"/>
      <point x="792.6666666666665" y="559.0"/>
      <point x="800.6666666666666" y="584.3333333333334" type="curve" smooth="yes"/>
      <point x="819.3333333333331" y="588.3333333333333"/>
      <point x="829.6666666666669" y="589.6666666666666"/>
      <point x="846.9999999999999" y="589.6666666666666" type="curve" smooth="yes"/>
      <point x="881.6666666666665" y="589.6666666666667"/>
      <point x="915.3333333333331" y="580.9999999999999"/>
      <point x="945.6666666666665" y="566.0" type="curve"/>
      <point x="951.6666666666665" y="566.0" type="line"/>
      <point x="965.0" y="591.0"/>
      <point x="973.3333333333334" y="614.0"/>
      <point x="980.6666666666667" y="643.3333333333334" type="curve"/>
      <point x="992.0" y="690.9999999999999"/>
      <point x="990.3333333333334" y="719.3333333333334"/>
      <point x="976.6666666666666" y="739.0" type="curve" smooth="yes"/>
      <point x="963.6666666666666" y="757.3333333333333"/>
      <point x="940.3333333333334" y="770.0"/>
      <point x="889.3333333333331" y="770.0" type="curve" smooth="yes"/>
      <point x="754.0000000000001" y="770.0"/>
      <point x="639.3333333333334" y="669.6666666666665"/>
      <point x="607.6666666666667" y="559.0" type="curve" smooth="yes"/>
      <point x="563.6666666666667" y="405.33333333333337"/>
      <point x="552.3333333333335" y="284.3333333333333"/>
      <point x="497.00000000000006" y="128.66666666666669" type="curve"/>
      <point x="476.00000000000006" y="69.33333333333334"/>
      <point x="452.6666666666667" y="31.33333333333333"/>
      <point x="428.0000000000001" y="0.0" type="curve"/>
      <point x="445.66666666666674" y="-10.666666666666666"/>
      <point x="473.33333333333337" y="-19.0"/>
      <point x="521.6666666666667" y="-19.0" type="curve"/>
      <point x="620.0000000000002" y="-19.0"/>
      <point x="670.6666666666667" y="16.0"/>
    </contour>
    <contour>
      <point x="975.3333333333334" y="330.00000000000006" type="line"/>
      <point x="986.0" y="347.33333333333337"/>
      <point x="995.0" y="369.66666666666663"/>
      <point x="1000.3333333333334" y="392.6666666666667" type="curve" smooth="yes"/>
      <point x="1015.3333333333334" y="458.33333333333337"/>
      <point x="964.6666666666667" y="500.0"/>
      <point x="878.3333333333335" y="500.0" type="curve" smooth="yes"/>
      <point x="77.00000000000001" y="500.0" type="line"/>
      <point x="71.0" y="489.3333333333333"/>
      <point x="67.33333333333333" y="479.0"/>
      <point x="61.0" y="456.6666666666667" type="curve" smooth="yes"/>
      <point x="38.000000000000014" y="374.0"/>
      <point x="89.0" y="330.00000000000006"/>
      <point x="191.33333333333331" y="330.00000000000006" type="curve" smooth="yes"/>
    </contour>
    <contour>
      <point x="1052.6666666666667" y="772.6666666666665" type="curve"/>
      <point x="1042.0000000000002" y="732.6666666666667" type="line" smooth="yes"/>
      <point x="1018.666666666667" y="643.3333333333334"/>
      <point x="1052.0000000000002" y="605.0000000000001"/>
      <point x="1154.0000000000002" y="605.0000000000001" type="curve" smooth="yes"/>
      <point x="1191.3333333333333" y="605.0000000000001"/>
      <point x="1215.3333333333335" y="608.3333333333334"/>
      <point x="1251.0" y="616.3333333333333" type="curve"/>
      <point x="1261.3333333333333" y="656.3333333333334" type="line" smooth="yes"/>
      <point x="1280.6666666666667" y="732.3333333333333"/>
      <point x="1254.0" y="781.3333333333334"/>
      <point x="1150.0" y="781.3333333333334" type="curve" smooth="yes"/>
      <point x="1108.6666666666665" y="781.3333333333334"/>
      <point x="1089.0000000000002" y="778.0000000000001"/>
    </contour>
    <contour>
      <point x="990.6666666666667" y="546.0" type="curve"/>
      <point x="998.3333333333334" y="492.6666666666667"/>
      <point x="994.0" y="437.6666666666665"/>
      <point x="980.6666666666667" y="383.33333333333337" type="curve"/>
      <point x="960.3333333333333" y="301.66666666666663"/>
      <point x="920.6666666666666" y="234.66666666666669"/>
      <point x="907.3333333333333" y="148.33333333333331" type="curve" smooth="yes"/>
      <point x="891.6666666666666" y="49.33333333333333"/>
      <point x="924.3333333333336" y="-9.666666666666666"/>
      <point x="1007.6666666666667" y="-9.666666666666666" type="curve" smooth="yes"/>
      <point x="1039.3333333333335" y="-9.666666666666666"/>
      <point x="1071.3333333333337" y="-7.333333333333332"/>
      <point x="1101.3333333333333" y="0.0" type="curve"/>
      <point x="1086.3333333333335" y="47.666666666666664"/>
      <point x="1088.666666666667" y="103.0"/>
      <point x="1099.666666666667" y="158.33333333333334" type="curve" smooth="yes"/>
      <point x="1119.3333333333333" y="253.66666666666666"/>
      <point x="1168.3333333333335" y="329.6666666666667"/>
      <point x="1187.3333333333333" y="438.3333333333333" type="curve" smooth="yes"/>
      <point x="1198.333333333333" y="502.3333333333333"/>
      <point x="1150.9999999999998" y="557.3333333333333"/>
      <point x="1068.6666666666665" y="557.3333333333333" type="curve" smooth="yes"/>
      <point x="1033.6666666666665" y="557.3333333333333"/>
      <point x="1012.0000000000002" y="553.3333333333334"/>
    </contour>
  </outline>
</glyph>
<glyph name="f_f_l.italic" format="2">
  <advance width="1200.0"/>
  <outline>
    <contour>
      <point x="297.66666666666663" y="95.99999999999999" type="curve"/>
      <point x="343.33333333333337" y="222.66666666666666"/>
      <point x="348.33333333333326" y="340.66666666666663"/>
      <point x="387.66666666666663" y="499.99999999999994" type="curve" smooth="yes"/>
      <point x="388.0" y="533.0000000000001"/>
      <point x="390.66666666666674" y="559.0"/>
      <point x="398.66666666666674" y="584.3333333333334" type="curve" smooth="yes"/>
      <point x="416.0" y="587.6666666666667"/>
      <point x="429.33333333333337" y="589.6666666666666"/>
      <point x="444.9999999999999" y="589.6666666666666" type="curve" smooth="yes"/>
      <point x="480.6666666666668" y="589.6666666666666"/>
      <point x="521.0" y="580.3333333333334"/>
      <point x="552.0000000000001" y="565.9999999999999" type="curve"/>
      <point x="558.0" y="565.9999999999999" type="line"/>
      <point x="571.3333333333331" y="590.9999999999999"/>
      <point x="579.6666666666665" y="614.0"/>
      <point x="586.9999999999999" y="643.3333333333334" type="curve"/>
      <point x="598.3333333333331" y="690.9999999999999"/>
      <point x="594.6666666666666" y="721.6666666666667"/>
      <point x="581.6666666666666" y="738.6666666666666" type="curve" smooth="yes"/>
      <point x="566.6666666666666" y="757.6666666666665"/>
      <point x="532.3333333333333" y="770.0"/>
      <point x="487.0" y="770.0" type="curve" smooth="yes"/>
      <point x="352.0" y="770.0"/>
      <point x="237.33333333333334" y="669.6666666666666"/>
      <point x="205.6666666666667" y="559.0" type="curve" smooth="yes"/>
      <point x="161.66666666666666" y="405.3333333333333"/>
      <point x="150.33333333333334" y="284.3333333333333"/>
      <point x="95.00000000000003" y="128.66666666666669" type="curve"/>
      <point x="74.00000000000001" y="69.33333333333334"/>
      <point x="50.666666666666686" y="31.33333333333333"/>
      <point x="26.000000000000014" y="0.0" type="curve"/>
      <point x="43.66666666666667" y="-10.666666666666666"/>
      <point x="71.33333333333333" y="-19.0"/>
      <point x="119.66666666666669" y="-19.0" type="curve"/>
      <point x="217.99999999999997" y="-19.0"/>
      <point x="268.66666666666663" y="16.0"/>
    </contour>
    <contour>
      <point x="998.6666666666663" y="582.0000000000001" type="curve"/>
      <point x="965.333333333333" y="447.0"/>
      <point x="895.0" y="357.33333333333337"/>
      <point x="872.3333333333334" y="206.99999999999997" type="curve" smooth="yes"/>
      <point x="857.3333333333334" y="110.66666666666666"/>
      <point x="926.6666666666669" y="-10.666666666666666"/>
      <point x="1009.6666666666666" y="-10.666666666666666" type="curve" smooth="yes"/>
      <point x="1052.0000000000002" y="-10.666666666666666"/>
      <point x="1087.3333333333337" y="4.0"/>
      <point x="1108.6666666666667" y="23.666666666666664" type="curve" smooth="yes"/>
      <point x="1130.6666666666665" y="43.666666666666664"/>
      <point x="1151.333333333333" y="76.66666666666666"/>
      <point x="1163.6666666666665" y="127.99999999999999" type="curve" smooth="yes"/>
      <point x="1173.9999999999995" y="171.00000000000003"/>
      <point x="1174.6666666666667" y="209.0"/>
      <point x="1172.0" y="231.99999999999997" type="curve"/>
      <point x="1166.0" y="231.99999999999997" type="line"/>
      <point x="1133.3333333333333" y="192.99999999999997"/>
      <point x="1099.3333333333333" y="175.66666666666666"/>
      <point x="1078.6666666666663" y="175.66666666666666" type="curve" smooth="yes"/>
      <point x="1072.333333333333" y="175.66666666666666"/>
      <point x="1066.333333333333" y="175.99999999999997"/>
      <point x="1061.9999999999998" y="176.99999999999997" type="curve" smooth="yes"/>
      <point x="1062.9999999999998" y="190.00000000000003"/>
      <point x="1067.3333333333333" y="212.66666666666669"/>
      <point x="1073.333333333333" y="231.66666666666663" type="curve" smooth="yes"/>
      <point x="1114.3333333333333" y="370.99999999999994"/>
      <point x="1191.333333333333" y="478.33333333333326"/>
      <point x="1208.333333333333" y="623.6666666666667" type="curve" smooth="yes"/>
      <point x="1213.333333333333" y="673.3333333333333"/>
      <point x="1190.0000000000002" y="706.0"/>
      <point x="1131.333333333333" y="734.3333333333333" type="curve" smooth="yes"/>
      <point x="1090.9999999999998" y="755.0000000000002"/>
      <point x="1027.0000000000002" y="770.0"/>
      <point x="930.6666666666666" y="770.0" type="curve" smooth="yes"/>
      <point x="741.333333333333" y="770.0"/>
      <point x="623.0000000000001" y="669.6666666666666"/>
      <point x="591.3333333333333" y="558.9999999999999" type="curve" smooth="yes"/>
      <point x="547.3333333333334" y="405.3333333333333"/>
      <point x="536.0000000000001" y="284.3333333333333"/>
      <point x="480.66666666666674" y="128.66666666666669" type="curve"/>
      <point x="459.66666666666663" y="69.33333333333334"/>
      <point x="436.3333333333335" y="31.333333333333343"/>
      <point x="411.66666666666674" y="0.0" type="curve"/>
      <point x="429.33333333333337" y="-10.666666666666666"/>
      <point x="456.9999999999999" y="-19.0"/>
      <point x="505.33333333333337" y="-19.0" type="curve"/>
      <point x="603.6666666666666" y="-19.0"/>
      <point x="654.3333333333335" y="16.0"/>
      <point x="683.3333333333334" y="96.0" type="curve"/>
      <point x="729.0000000000001" y="222.66666666666666"/>
      <point x="734.0" y="340.66666666666663"/>
      <point x="773.3333333333335" y="500.0" type="curve" smooth="yes"/>
      <point x="773.6666666666667" y="533.0"/>
      <point x="776.3333333333333" y="559.0000000000002"/>
      <point x="784.3333333333333" y="584.3333333333334" type="curve" smooth="yes"/>
      <point x="807.6666666666666" y="587.6666666666667"/>
      <point x="842.0" y="589.6666666666666"/>
      <point x="870.6666666666667" y="589.6666666666666" type="curve" smooth="yes"/>
      <point x="922.6666666666666" y="589.6666666666666"/>
      <point x="964.3333333333334" y="586.6666666666667"/>
    </contour>
    <contour>
      <point x="855.3333333333333" y="330.00000000000006" type="line"/>
      <point x="866.0" y="348.6666666666667"/>
      <point x="875.3333333333333" y="373.0"/>
      <point x="881.0" y="395.33333333333337" type="curve" smooth="yes"/>
      <point x="900.3333333333331" y="473.33333333333326"/>
      <point x="871.9999999999998" y="500.0"/>
      <point x="808.6666666666664" y="500.0" type="curve" smooth="yes"/>
      <point x="77.0" y="500.0" type="line"/>
      <point x="71.0" y="489.33333333333337"/>
      <point x="67.33333333333334" y="479.0"/>
      <point x="61.00000000000001" y="456.6666666666667" type="curve" smooth="yes"/>
      <point x="38.00000000000001" y="374.0"/>
      <point x="89.0" y="330.00000000000006"/>
      <point x="191.33333333333331" y="330.00000000000006" type="curve" smooth="yes"/>
    </contour>
  </outline>
</glyph>
<glyph name="hookcomb.case" format="2">
  <anchor x="123.66666666666666" y="770.0" name="_hook"/>
  <anchor x="106.99999999999999" y="702.6666666666667" name="_side"/>
  <outline>
    <contour>
      <point x="43.0" y="780.0" type="curve" smooth="yes"/>
      <point x="37.33333333333334" y="757.3333333333333"/>
      <point x="59.999999999999986" y="741.3333333333334"/>
      <point x="106.33333333333333" y="741.3333333333334" type="curve" smooth="yes"/>
      <point x="130.0" y="741.3333333333334"/>
      <point x="150.33333333333334" y="743.6666666666667"/>
      <point x="170.33333333333334" y="748.6666666666666" type="curve"/>
      <point x="179.33333333333334" y="765.3333333333335"/>
      <point x="189.33333333333331" y="774.6666666666667"/>
      <point x="224.66666666666666" y="792.6666666666667" type="curve" smooth="yes"/>
      <point x="262.99999999999994" y="812.6666666666665"/>
      <point x="279.6666666666667" y="829.0000000000001"/>
      <point x="285.33333333333337" y="860.3333333333334" type="curve" smooth="yes"/>
      <point x="286.33333333333337" y="865.6666666666666" type="line" smooth="yes"/>
      <point x="295.66666666666663" y="914.6666666666665"/>
      <point x="253.33333333333331" y="965.3333333333333"/>
      <point x="160.66666666666666" y="965.3333333333333" type="curve" smooth="yes"/>
      <point x="117.33333333333336" y="965.3333333333333"/>
      <point x="85.66666666666667" y="957.3333333333333"/>
      <point x="63.666666666666686" y="941.9999999999999" type="curve" smooth="yes"/>
      <point x="40.00000000000001" y="926.3333333333333"/>
      <point x="28.33333333333334" y="906.6666666666666"/>
      <point x="24.666666666666675" y="881.6666666666667" type="curve" smooth="yes"/>
      <point x="22.00000000000001" y="862.0000000000001"/>
      <point x="23.333333333333343" y="845.3333333333334"/>
      <point x="30.666666666666682" y="832.6666666666666" type="curve"/>
      <point x="36.666666666666686" y="832.6666666666666" type="line"/>
      <point x="68.33333333333331" y="846.0"/>
      <point x="98.00000000000001" y="852.3333333333334"/>
      <point x="133.66666666666666" y="852.3333333333334" type="curve" smooth="yes"/>
      <point x="149.33333333333334" y="852.3333333333334"/>
      <point x="160.0" y="851.0"/>
      <point x="168.33333333333334" y="849.6666666666666" type="curve"/>
      <point x="168.66666666666669" y="847.6666666666665"/>
      <point x="168.33333333333334" y="845.9999999999999"/>
      <point x="168.33333333333337" y="844.3333333333333" type="curve"/>
      <point x="166.0" y="836.3333333333334"/>
      <point x="151.0" y="831.3333333333333"/>
      <point x="108.33333333333334" y="820.3333333333334" type="curve" smooth="yes"/>
      <point x="69.00000000000001" y="809.6666666666666"/>
      <point x="48.33333333333334" y="800.6666666666667"/>
    </contour>
  </outline>
</glyph>
<glyph name="horncombo" format="2">
  <anchor x="63.99999999999999" y="529.0" name="_horn"/>
  <outline>
    <contour>
      <point x="115.66666666666669" y="676.6666666666666" type="curve"/>
      <point x="121.66666666666666" y="644.9999999999998"/>
      <point x="124.33333333333333" y="617.3333333333334"/>
      <point x="118.0" y="582.6666666666666" type="curve" smooth="yes"/>
      <point x="111.66666666666666" y="550.0"/>
      <point x="98.66666666666666" y="533.0"/>
      <point x="88.33333333333336" y="525.6666666666667" type="curve" smooth="yes"/>
      <point x="78.0" y="518.3333333333335"/>
      <point x="68.66666666666667" y="514.6666666666665"/>
      <point x="57.0" y="513.9999999999999" type="curve"/>
      <point x="50.66666666666666" y="489.0"/>
      <point x="42.33333333333332" y="459.66666666666663"/>
      <point x="37.99999999999999" y="441.66666666666663" type="curve"/>
      <point x="43.99999999999999" y="441.6666666666667"/>
      <point x="54.0" y="441.6666666666667"/>
      <point x="60.000000000000014" y="441.66666666666663" type="curve" smooth="yes"/>
      <point x="92.33333333333334" y="441.6666666666667"/>
      <point x="132.0" y="450.00000000000006"/>
      <point x="174.33333333333334" y="475.3333333333334" type="curve" smooth="yes"/>
      <point x="217.66666666666669" y="501.6666666666668"/>
      <point x="254.6666666666667" y="543.6666666666666"/>
      <point x="262.66666666666674" y="606.0" type="curve" smooth="yes"/>
      <point x="269.33333333333337" y="657.3333333333333"/>
      <point x="246.0" y="685.3333333333334"/>
      <point x="185.0" y="685.3333333333334" type="curve" smooth="yes"/>
      <point x="155.33333333333331" y="685.3333333333334"/>
      <point x="136.0" y="682.3333333333333"/>
    </contour>
  </outline>
</glyph>
<glyph name="m.italic" format="2">
  <advance width="600.0"/>
  <outline>
    <contour>
      <point x="517.0000000000001" y="0.0" type="curve"/>
      <point x="509.3333333333334" y="40.0"/>
      <point x="508.0" y="77.33333333333333"/>
      <point x="522.9999999999999" y="135.33333333333331" type="curve" smooth="yes"/>
      <point x="543.6666666666665" y="216.33333333333334"/>
      <point x="580.3333333333333" y="284.99999999999994"/>
      <point x="603.9999999999999" y="381.99999999999983" type="curve" smooth="yes"/>
      <point x="619.6666666666666" y="448.3333333333333"/>
      <point x="584.9999999999998" y="557.3333333333334"/>
      <point x="535.3333333333336" y="557.3333333333334" type="curve" smooth="yes"/>
      <point x="499.7185765887334" y="557.3333333333334"/>
      <point x="453.6666666666667" y="531.6666666666666"/>
      <point x="392.6666666666667" y="431.0" type="curve"/>
      <point x="376.33333333333337" y="436.0" type="line"/>
      <point x="347.3333333333333" y="308.33333333333326" type="line"/>
      <point x="367.6666666666667" y="347.66666666666674"/>
      <point x="395.6666666666666" y="367.33333333333337"/>
      <point x="427.66666666666674" y="367.33333333333337" type="curve" smooth="yes"/>
      <point x="437.3333333333334" y="367.33333333333337"/>
      <point x="444.66666666666674" y="364.6666666666667"/>
      <point x="453.66666666666674" y="356.66666666666663" type="curve"/>
      <point x="409.66666666666674" y="269.3333333333333"/>
      <point x="380.0000000000001" y="198.00000000000003"/>
      <point x="368.0" y="143.0" type="curve" smooth="yes"/>
      <point x="348.6666666666667" y="53.666666666666664"/>
      <point x="382.66666666666674" y="-9.666666666666666"/>
      <point x="458.3333333333333" y="-9.666666666666666" type="curve" smooth="yes"/>
      <point x="482.33333333333326" y="-9.666666666666666"/>
      <point x="499.3333333333334" y="-6.666666666666666"/>
    </contour>
    <contour>
      <point x="290.3333333333333" y="0.0" type="curve"/>
      <point x="287.6666666666666" y="105.33333333333334"/>
      <point x="325.66666666666663" y="205.3333333333333"/>
      <point x="377.9999999999999" y="396.99999999999994" type="curve" smooth="yes"/>
      <point x="407.9999999999999" y="502.6666666666667"/>
      <point x="389.0000000000001" y="556.6666666666667"/>
      <point x="359.0" y="556.6666666666667" type="curve" smooth="yes"/>
      <point x="327.01531862120004" y="556.6666666666667"/>
      <point x="277.7056162645333" y="512.3491853738"/>
      <point x="232.0" y="429.0" type="curve"/>
      <point x="215.66666666666663" y="433.99999999999994" type="line"/>
      <point x="188.33333333333331" y="308.3333333333333" type="line"/>
      <point x="216.66666666666666" y="348.3333333333333"/>
      <point x="243.99999999999997" y="367.33333333333337"/>
      <point x="267.33333333333326" y="367.33333333333337" type="curve" smooth="yes"/>
      <point x="274.0" y="367.33333333333337"/>
      <point x="280.66666666666674" y="365.99999999999994"/>
      <point x="285.0000000000001" y="362.99999999999994" type="curve" smooth="yes"/>
      <point x="248.33333333333337" y="271.0"/>
      <point x="214.33333333333331" y="175.0"/>
      <point x="200.3333333333333" y="114.33333333333334" type="curve" smooth="yes"/>
      <point x="182.66666666666666" y="35.66666666666667"/>
      <point x="200.33333333333334" y="-5.0"/>
      <point x="252.0" y="-5.0" type="curve" smooth="yes"/>
      <point x="265.6666666666668" y="-5.0"/>
      <point x="280.0" y="-3.0"/>
    </contour>
    <contour>
      <point x="137.66666666666669" y="-1.0000000000000004" type="curve"/>
      <point x="125.33194090826666" y="129.34629359753342"/>
      <point x="172.9750928469333" y="223.90659817593337"/>
      <point x="215.66666666666669" y="377.3333333333333" type="curve"/>
      <point x="251.00000000000003" y="502.6666666666667"/>
      <point x="207.00000000000003" y="555.3333333333333"/>
      <point x="133.66666666666669" y="555.3333333333333" type="curve"/>
      <point x="111.00000000000003" y="555.3333333333333"/>
      <point x="95.33333333333334" y="551.9999999999999"/>
      <point x="79.33333333333334" y="546.6666666666666" type="curve"/>
      <point x="84.33333333333334" y="511.33333333333326"/>
      <point x="81.33333333333334" y="473.33333333333337"/>
      <point x="69.0" y="423.66666666666663" type="curve" smooth="yes"/>
      <point x="45.99288851443334" y="326.2987918319333"/>
      <point x="5.002452998600013" y="228.6840011901333"/>
      <point x="-8.666666666666654" y="142.0" type="curve" smooth="yes"/>
      <point x="-21.660191671266656" y="61.04347496916666"/>
      <point x="11.36021505376667" y="-6.666666666666666"/>
      <point x="95.00000000000001" y="-6.666666666666666" type="curve" smooth="yes"/>
      <point x="109.66666666666666" y="-6.666666666666666"/>
      <point x="121.99999999999997" y="-4.333333333333333"/>
    </contour>
  </outline>
</glyph>
<glyph name="ninesuperior.ss01" format="2">
  <advance width="600.0"/>
  <outline>
    <contour>
      <point x="400.0" y="752.0" type="curve" smooth="yes"/>
      <point x="301.6666666666667" y="752.0"/>
      <point x="243.00000000000003" y="701.9999999999999"/>
      <point x="226.6666666666667" y="627.6666666666665" type="curve" smooth="yes"/>
      <point x="224.66666666666666" y="618.3333333333333" type="line" smooth="yes"/>
      <point x="206.66666666666669" y="535.3333333333334"/>
      <point x="243.66666666666663" y="493.3333333333333"/>
      <point x="310.00000000000006" y="493.3333333333333" type="curve" smooth="yes"/>
      <point x="357.0" y="493.3333333333333"/>
      <point x="385.3333333333333" y="504.3333333333333"/>
      <point x="411.99999999999994" y="537.3333333333333" type="curve"/>
      <point x="378.00000000000006" y="523.6666666666666" type="line"/>
      <point x="434.00000000000006" y="523.6666666666666" type="line"/>
      <point x="451.6666666666667" y="594.0" type="line"/>
      <point x="419.33333333333337" y="577.6666666666667"/>
      <point x="395.33333333333337" y="574.6666666666666"/>
      <point x="373.66666666666674" y="574.6666666666666" type="curve" smooth="yes"/>
      <point x="359.6666666666666" y="574.6666666666666"/>
      <point x="348.66666666666663" y="575.6666666666667"/>
      <point x="337.66666666666674" y="578.6666666666666" type="curve" smooth="yes"/>
      <point x="336.0" y="588.6666666666666"/>
      <point x="336.00000000000006" y="599.6666666666667"/>
      <point x="339.33333333333337" y="614.0" type="curve" smooth="yes"/>
      <point x="341.6666666666667" y="623.6666666666665" type="line" smooth="yes"/>
      <point x="348.00000000000006" y="649.0"/>
      <point x="365.00000000000006" y="663.0000000000001"/>
      <point x="396.0" y="663.0000000000001" type="curve" smooth="yes"/>
      <point x="410.66666666666663" y="663.0000000000001"/>
      <point x="421.6666666666667" y="661.6666666666666"/>
      <point x="433.66666666666674" y="657.6666666666667" type="curve" smooth="yes"/>
      <point x="434.3333333333333" y="636.0"/>
      <point x="431.66666666666674" y="612.6666666666666"/>
      <point x="424.00000000000006" y="583.6666666666666" type="curve" smooth="yes"/>
      <point x="420.3333333333334" y="567.3333333333334" type="line" smooth="yes"/>
      <point x="402.6666666666668" y="489.0000000000001"/>
      <point x="358.00000000000006" y="453.33333333333337"/>
      <point x="235.33333333333337" y="405.66666666666663" type="curve"/>
      <point x="234.00000000000003" y="399.6666666666667" type="line"/>
      <point x="264.66666666666674" y="377.99999999999994"/>
      <point x="304.33333333333337" y="365.33333333333337"/>
      <point x="344.0" y="365.33333333333337" type="curve" smooth="yes"/>
      <point x="380.9999999999999" y="365.33333333333337"/>
      <point x="405.3333333333334" y="371.0"/>
      <point x="435.6666666666667" y="395.66666666666663" type="curve" smooth="yes"/>
      <point x="482.6666666666666" y="433.99999999999994"/>
      <point x="515.6666666666666" y="481.0"/>
      <point x="533.6666666666665" y="561.3333333333331" type="curve" smooth="yes"/>
      <point x="535.6666666666665" y="570.3333333333334" type="line" smooth="yes"/>
      <point x="562.3333333333333" y="677.3333333333334"/>
      <point x="520.9999999999999" y="752.0"/>
    </contour>
  </outline>
</glyph>
